P3
64 64
255
255 255 0 255 251 0 255 247 0 255 243 0 255 239 0 255 235 0 255 231 0 255 227 0 255 223 0 255 219 0 255 215 0 255 211 0 255 207 0 255 203 0 255 199 0 255 195 0 255 191 0 255 187 0 255 183 0 255 179 0 255 175 0 255 171 0 255 167 0 255 163 0 255 159 0 255 155 0 255 151 0 255 147 0 255 143 0 255 139 0 255 135 0 255 131 0 255 127 0 255 123 0 255 119 0 255 115 0 255 111 0 255 107 0 255 103 0 255 99 0 255 95 0 255 91 0 255 87 0 255 83 0 255 79 0 255 75 0 255 71 0 255 67 0 255 63 0 255 59 0 255 55 0 255 51 0 255 47 0 255 43 0 255 39 0 255 35 0 255 31 0 255 27 0 255 23 0 255 19 0 255 15 0 255 11 0 255 7 0 255 3 0 
251 255 4 251 251 4 251 247 4 251 243 4 251 239 4 251 235 4 251 231 4 251 227 4 251 223 4 251 219 4 251 215 4 251 211 4 251 207 4 251 203 4 251 199 4 251 195 4 251 191 4 251 187 4 251 183 4 251 179 4 251 175 4 251 171 4 251 167 4 251 163 4 251 159 4 251 155 4 251 151 4 251 147 4 251 143 4 251 139 4 251 135 4 251 131 4 251 127 4 251 123 4 251 119 4 251 115 4 251 111 4 251 107 4 251 103 4 251 99 4 251 95 4 251 91 4 251 87 4 251 83 4 251 79 4 251 75 4 251 71 4 251 67 4 251 63 4 251 59 4 251 55 4 251 51 4 251 47 4 251 43 4 251 39 4 251 35 4 251 31 4 251 27 4 251 23 4 251 19 4 251 15 4 251 11 4 251 7 4 251 3 4 
247 255 8 247 251 8 247 247 8 247 243 8 247 239 8 247 235 8 247 231 8 247 227 8 247 223 8 247 219 8 247 215 8 247 211 8 247 207 8 247 203 8 247 199 8 247 195 8 247 191 8 247 187 8 247 183 8 247 179 8 247 175 8 247 171 8 247 167 8 247 163 8 247 159 8 247 155 8 247 151 8 247 147 8 247 143 8 247 139 8 247 135 8 247 131 8 247 127 8 247 123 8 247 119 8 247 115 8 247 111 8 247 107 8 247 103 8 247 99 8 247 95 8 247 91 8 247 87 8 247 83 8 247 79 8 247 75 8 247 71 8 247 67 8 247 63 8 247 59 8 247 55 8 247 51 8 247 47 8 247 43 8 247 39 8 247 35 8 247 31 8 247 27 8 247 23 8 247 19 8 247 15 8 247 11 8 247 7 8 247 3 8 
243 255 12 243 251 12 243 247 12 243 243 12 243 239 12 243 235 12 243 231 12 243 227 12 243 223 12 243 219 12 243 215 12 243 211 12 243 207 12 243 203 12 243 199 12 243 195 12 243 191 12 243 187 12 243 183 12 243 179 12 243 175 12 243 171 12 243 167 12 243 163 12 243 159 12 243 155 12 243 151 12 243 147 12 243 143 12 243 139 12 243 135 12 243 131 12 243 127 12 243 123 12 243 119 12 243 115 12 243 111 12 243 107 12 243 103 12 243 99 12 243 95 12 243 91 12 243 87 12 243 83 12 243 79 12 243 75 12 243 71 12 243 67 12 243 63 12 243 59 12 243 55 12 243 51 12 243 47 12 243 43 12 243 39 12 243 35 12 243 31 12 243 27 12 243 23 12 243 19 12 243 15 12 243 11 12 243 7 12 243 3 12 
239 255 16 239 251 16 239 247 16 239 243 16 239 239 16 239 235 16 239 231 16 239 227 16 239 223 16 239 219 16 239 215 16 239 211 16 239 207 16 239 203 16 239 199 16 239 195 16 239 191 16 239 187 16 239 183 16 239 179 16 239 175 16 239 171 16 239 167 16 239 163 16 239 159 16 239 155 16 239 151 16 239 147 16 239 143 16 239 139 16 239 135 16 239 131 16 239 127 16 239 123 16 239 119 16 239 115 16 239 111 16 239 107 16 239 103 16 239 99 16 239 95 16 239 91 16 239 87 16 239 83 16 239 79 16 239 75 16 239 71 16 239 67 16 239 63 16 239 59 16 239 55 16 239 51 16 239 47 16 239 43 16 239 39 16 239 35 16 239 31 16 239 27 16 239 23 16 239 19 16 239 15 16 239 11 16 239 7 16 239 3 16 
235 255 20 235 251 20 235 247 20 235 243 20 235 239 20 235 235 20 235 231 20 235 227 20 235 223 20 235 219 20 235 215 20 235 211 20 235 207 20 235 203 20 235 199 20 235 195 20 235 191 20 235 187 20 235 183 20 235 179 20 235 175 20 235 171 20 235 167 20 235 163 20 235 159 20 235 155 20 235 151 20 235 147 20 235 143 20 235 139 20 235 135 20 235 131 20 235 127 20 235 123 20 235 119 20 235 115 20 235 111 20 235 107 20 235 103 20 235 99 20 235 95 20 235 91 20 235 87 20 235 83 20 235 79 20 235 75 20 235 71 20 235 67 20 235 63 20 235 59 20 235 55 20 235 51 20 235 47 20 235 43 20 235 39 20 235 35 20 235 31 20 235 27 20 235 23 20 235 19 20 235 15 20 235 11 20 235 7 20 235 3 20 
231 255 24 231 251 24 231 247 24 231 243 24 231 239 24 231 235 24 231 231 24 231 227 24 231 223 24 231 219 24 231 215 24 231 211 24 231 207 24 231 203 24 231 199 24 231 195 24 231 191 24 231 187 24 231 183 24 231 179 24 231 175 24 231 171 24 231 167 24 231 163 24 231 159 24 231 155 24 231 151 24 231 147 24 231 143 24 231 139 24 231 135 24 231 131 24 231 127 24 231 123 24 231 119 24 231 115 24 231 111 24 231 107 24 231 103 24 231 99 24 231 95 24 231 91 24 231 87 24 231 83 24 231 79 24 231 75 24 231 71 24 231 67 24 231 63 24 231 59 24 231 55 24 231 51 24 231 47 24 231 43 24 231 39 24 231 35 24 231 31 24 231 27 24 231 23 24 231 19 24 231 15 24 231 11 24 231 7 24 231 3 24 
227 255 28 227 251 28 227 247 28 227 243 28 227 239 28 227 235 28 227 231 28 227 227 28 227 223 28 227 219 28 227 215 28 227 211 28 227 207 28 227 203 28 227 199 28 227 195 28 227 191 28 227 187 28 227 183 28 227 179 28 227 175 28 227 171 28 227 167 28 227 163 28 227 159 28 227 155 28 227 151 28 227 147 28 227 143 28 227 139 28 227 135 28 227 131 28 227 127 28 227 123 28 227 119 28 227 115 28 227 111 28 227 107 28 227 103 28 227 99 28 227 95 28 227 91 28 227 87 28 227 83 28 227 79 28 227 75 28 227 71 28 227 67 28 227 63 28 227 59 28 227 55 28 227 51 28 227 47 28 227 43 28 227 39 28 227 35 28 227 31 28 227 27 28 227 23 28 227 19 28 227 15 28 227 11 28 227 7 28 227 3 28 
223 255 32 223 251 32 223 247 32 223 243 32 223 239 32 223 235 32 223 231 32 223 227 32 223 223 32 223 219 32 223 215 32 223 211 32 223 207 32 223 203 32 223 199 32 223 195 32 223 191 32 223 187 32 223 183 32 223 179 32 223 175 32 223 171 32 223 167 32 223 163 32 223 159 32 223 155 32 223 151 32 223 147 32 223 143 32 223 139 32 223 135 32 223 131 32 223 127 32 223 123 32 223 119 32 223 115 32 223 111 32 223 107 32 223 103 32 223 99 32 223 95 32 223 91 32 223 87 32 223 83 32 223 79 32 223 75 32 223 71 32 223 67 32 223 63 32 223 59 32 223 55 32 223 51 32 223 47 32 223 43 32 223 39 32 223 35 32 223 31 32 223 27 32 223 23 32 223 19 32 223 15 32 223 11 32 223 7 32 223 3 32 
219 255 36 219 251 36 219 247 36 219 243 36 219 239 36 219 235 36 219 231 36 219 227 36 219 223 36 219 219 36 219 215 36 219 211 36 219 207 36 219 203 36 219 199 36 219 195 36 219 191 36 219 187 36 219 183 36 219 179 36 219 175 36 219 171 36 219 167 36 219 163 36 219 159 36 219 155 36 219 151 36 219 147 36 219 143 36 219 139 36 219 135 36 219 131 36 219 127 36 219 123 36 219 119 36 219 115 36 219 111 36 219 107 36 219 103 36 219 99 36 219 95 36 219 91 36 219 87 36 219 83 36 219 79 36 219 75 36 219 71 36 219 67 36 219 63 36 219 59 36 219 55 36 219 51 36 219 47 36 219 43 36 219 39 36 219 35 36 219 31 36 219 27 36 219 23 36 219 19 36 219 15 36 219 11 36 219 7 36 219 3 36 
215 255 40 215 251 40 215 247 40 215 243 40 215 239 40 215 235 40 215 231 40 215 227 40 215 223 40 215 219 40 215 215 40 215 211 40 215 207 40 215 203 40 215 199 40 215 195 40 215 191 40 215 187 40 215 183 40 215 179 40 215 175 40 215 171 40 215 167 40 215 163 40 215 159 40 215 155 40 215 151 40 215 147 40 215 143 40 215 139 40 215 135 40 215 131 40 215 127 40 215 123 40 215 119 40 215 115 40 215 111 40 215 107 40 215 103 40 215 99 40 215 95 40 215 91 40 215 87 40 215 83 40 215 79 40 215 75 40 215 71 40 215 67 40 215 63 40 215 59 40 215 55 40 215 51 40 215 47 40 215 43 40 215 39 40 215 35 40 215 31 40 215 27 40 215 23 40 215 19 40 215 15 40 215 11 40 215 7 40 215 3 40 
211 255 44 211 251 44 211 247 44 211 243 44 211 239 44 211 235 44 211 231 44 211 227 44 211 223 44 211 219 44 211 215 44 211 211 44 211 207 44 211 203 44 211 199 44 211 195 44 211 191 44 211 187 44 211 183 44 211 179 44 211 175 44 211 171 44 211 167 44 211 163 44 211 159 44 211 155 44 211 151 44 211 147 44 211 143 44 211 139 44 211 135 44 211 131 44 211 127 44 211 123 44 211 119 44 211 115 44 211 111 44 211 107 44 211 103 44 211 99 44 211 95 44 211 91 44 211 87 44 211 83 44 211 79 44 211 75 44 211 71 44 211 67 44 211 63 44 211 59 44 211 55 44 211 51 44 211 47 44 211 43 44 211 39 44 211 35 44 211 31 44 211 27 44 211 23 44 211 19 44 211 15 44 211 11 44 211 7 44 211 3 44 
207 255 48 207 251 48 207 247 48 207 243 48 207 239 48 207 235 48 207 231 48 207 227 48 207 223 48 207 219 48 207 215 48 207 211 48 207 207 48 207 203 48 207 199 48 207 195 48 207 191 48 207 187 48 207 183 48 207 179 48 207 175 48 207 171 48 207 167 48 207 163 48 207 159 48 207 155 48 207 151 48 207 147 48 207 143 48 207 139 48 207 135 48 207 131 48 207 127 48 207 123 48 207 119 48 207 115 48 207 111 48 207 107 48 207 103 48 207 99 48 207 95 48 207 91 48 207 87 48 207 83 48 207 79 48 207 75 48 207 71 48 207 67 48 207 63 48 207 59 48 207 55 48 207 51 48 207 47 48 207 43 48 207 39 48 207 35 48 207 31 48 207 27 48 207 23 48 207 19 48 207 15 48 207 11 48 207 7 48 207 3 48 
203 255 52 203 251 52 203 247 52 203 243 52 203 239 52 203 235 52 203 231 52 203 227 52 203 223 52 203 219 52 203 215 52 203 211 52 203 207 52 203 203 52 203 199 52 203 195 52 203 191 52 203 187 52 203 183 52 203 179 52 203 175 52 203 171 52 203 167 52 203 163 52 203 159 52 203 155 52 203 151 52 203 147 52 203 143 52 203 139 52 203 135 52 203 131 52 203 127 52 203 123 52 203 119 52 203 115 52 203 111 52 203 107 52 203 103 52 203 99 52 203 95 52 203 91 52 203 87 52 203 83 52 203 79 52 203 75 52 203 71 52 203 67 52 203 63 52 203 59 52 203 55 52 203 51 52 203 47 52 203 43 52 203 39 52 203 35 52 203 31 52 203 27 52 203 23 52 203 19 52 203 15 52 203 11 52 203 7 52 203 3 52 
199 255 56 199 251 56 199 247 56 199 243 56 199 239 56 199 235 56 199 231 56 199 227 56 199 223 56 199 219 56 199 215 56 199 211 56 199 207 56 199 203 56 199 199 56 199 195 56 199 191 56 199 187 56 199 183 56 199 179 56 199 175 56 199 171 56 199 167 56 199 163 56 199 159 56 199 155 56 199 151 56 199 147 56 199 143 56 199 139 56 199 135 56 199 131 56 199 127 56 199 123 56 199 119 56 199 115 56 199 111 56 199 107 56 199 103 56 199 99 56 199 95 56 199 91 56 199 87 56 199 83 56 199 79 56 199 75 56 199 71 56 199 67 56 199 63 56 199 59 56 199 55 56 199 51 56 199 47 56 199 43 56 199 39 56 199 35 56 199 31 56 199 27 56 199 23 56 199 19 56 199 15 56 199 11 56 199 7 56 199 3 56 
195 255 60 195 251 60 195 247 60 195 243 60 195 239 60 195 235 60 195 231 60 195 227 60 195 223 60 195 219 60 195 215 60 195 211 60 195 207 60 195 203 60 195 199 60 195 195 60 195 191 60 195 187 60 195 183 60 195 179 60 195 175 60 195 171 60 195 167 60 195 163 60 195 159 60 195 155 60 195 151 60 195 147 60 195 143 60 195 139 60 195 135 60 195 131 60 195 127 60 195 123 60 195 119 60 195 115 60 195 111 60 195 107 60 195 103 60 195 99 60 195 95 60 195 91 60 195 87 60 195 83 60 195 79 60 195 75 60 195 71 60 195 67 60 195 63 60 195 59 60 195 55 60 195 51 60 195 47 60 195 43 60 195 39 60 195 35 60 195 31 60 195 27 60 195 23 60 195 19 60 195 15 60 195 11 60 195 7 60 195 3 60 
191 255 64 191 251 64 191 247 64 191 243 64 191 239 64 191 235 64 191 231 64 191 227 64 191 223 64 191 219 64 191 215 64 191 211 64 191 207 64 191 203 64 191 199 64 191 195 64 191 191 64 191 187 64 191 183 64 191 179 64 191 175 64 191 171 64 191 167 64 191 163 64 191 159 64 191 155 64 191 151 64 191 147 64 191 143 64 191 139 64 191 135 64 191 131 64 191 127 64 191 123 64 191 119 64 191 115 64 191 111 64 191 107 64 191 103 64 191 99 64 191 95 64 191 91 64 191 87 64 191 83 64 191 79 64 191 75 64 191 71 64 191 67 64 191 63 64 191 59 64 191 55 64 191 51 64 191 47 64 191 43 64 191 39 64 191 35 64 191 31 64 191 27 64 191 23 64 191 19 64 191 15 64 191 11 64 191 7 64 191 3 64 
187 255 68 187 251 68 187 247 68 187 243 68 187 239 68 187 235 68 187 231 68 187 227 68 187 223 68 187 219 68 187 215 68 187 211 68 187 207 68 187 203 68 187 199 68 187 195 68 187 191 68 187 187 68 187 183 68 187 179 68 187 175 68 187 171 68 187 167 68 187 163 68 187 159 68 187 155 68 187 151 68 187 147 68 187 143 68 187 139 68 187 135 68 187 131 68 187 127 68 187 123 68 187 119 68 187 115 68 187 111 68 187 107 68 187 103 68 187 99 68 187 95 68 187 91 68 187 87 68 187 83 68 187 79 68 187 75 68 187 71 68 187 67 68 187 63 68 187 59 68 187 55 68 187 51 68 187 47 68 187 43 68 187 39 68 187 35 68 187 31 68 187 27 68 187 23 68 187 19 68 187 15 68 187 11 68 187 7 68 187 3 68 
183 255 72 183 251 72 183 247 72 183 243 72 183 239 72 183 235 72 183 231 72 183 227 72 183 223 72 183 219 72 183 215 72 183 211 72 183 207 72 183 203 72 183 199 72 183 195 72 183 191 72 183 187 72 183 183 72 183 179 72 183 175 72 183 171 72 183 167 72 183 163 72 183 159 72 183 155 72 183 151 72 183 147 72 183 143 72 183 139 72 183 135 72 183 131 72 183 127 72 183 123 72 183 119 72 183 115 72 183 111 72 183 107 72 183 103 72 183 99 72 183 95 72 183 91 72 183 87 72 183 83 72 183 79 72 183 75 72 183 71 72 183 67 72 183 63 72 183 59 72 183 55 72 183 51 72 183 47 72 183 43 72 183 39 72 183 35 72 183 31 72 183 27 72 183 23 72 183 19 72 183 15 72 183 11 72 183 7 72 183 3 72 
179 255 76 179 251 76 179 247 76 179 243 76 179 239 76 179 235 76 179 231 76 179 227 76 179 223 76 179 219 76 179 215 76 179 211 76 179 207 76 179 203 76 179 199 76 179 195 76 179 191 76 179 187 76 179 183 76 179 179 76 179 175 76 179 171 76 179 167 76 179 163 76 179 159 76 179 155 76 179 151 76 179 147 76 179 143 76 179 139 76 179 135 76 179 131 76 179 127 76 179 123 76 179 119 76 179 115 76 179 111 76 179 107 76 179 103 76 179 99 76 179 95 76 179 91 76 179 87 76 179 83 76 179 79 76 179 75 76 179 71 76 179 67 76 179 63 76 179 59 76 179 55 76 179 51 76 179 47 76 179 43 76 179 39 76 179 35 76 179 31 76 179 27 76 179 23 76 179 19 76 179 15 76 179 11 76 179 7 76 179 3 76 
175 255 80 175 251 80 175 247 80 175 243 80 175 239 80 175 235 80 175 231 80 175 227 80 175 223 80 175 219 80 175 215 80 175 211 80 175 207 80 175 203 80 175 199 80 175 195 80 175 191 80 175 187 80 175 183 80 175 179 80 175 175 80 175 171 80 175 167 80 175 163 80 175 159 80 175 155 80 175 151 80 175 147 80 175 143 80 175 139 80 175 135 80 175 131 80 175 127 80 175 123 80 175 119 80 175 115 80 175 111 80 175 107 80 175 103 80 175 99 80 175 95 80 175 91 80 175 87 80 175 83 80 175 79 80 175 75 80 175 71 80 175 67 80 175 63 80 175 59 80 175 55 80 175 51 80 175 47 80 175 43 80 175 39 80 175 35 80 175 31 80 175 27 80 175 23 80 175 19 80 175 15 80 175 11 80 175 7 80 175 3 80 
171 255 84 171 251 84 171 247 84 171 243 84 171 239 84 171 235 84 171 231 84 171 227 84 171 223 84 171 219 84 171 215 84 171 211 84 171 207 84 171 203 84 171 199 84 171 195 84 171 191 84 171 187 84 171 183 84 171 179 84 171 175 84 171 171 84 171 167 84 171 163 84 171 159 84 171 155 84 171 151 84 171 147 84 171 143 84 171 139 84 171 135 84 171 131 84 171 127 84 171 123 84 171 119 84 171 115 84 171 111 84 171 107 84 171 103 84 171 99 84 171 95 84 171 91 84 171 87 84 171 83 84 171 79 84 171 75 84 171 71 84 171 67 84 171 63 84 171 59 84 171 55 84 171 51 84 171 47 84 171 43 84 171 39 84 171 35 84 171 31 84 171 27 84 171 23 84 171 19 84 171 15 84 171 11 84 171 7 84 171 3 84 
167 255 88 167 251 88 167 247 88 167 243 88 167 239 88 167 235 88 167 231 88 167 227 88 167 223 88 167 219 88 167 215 88 167 211 88 167 207 88 167 203 88 167 199 88 167 195 88 167 191 88 167 187 88 167 183 88 167 179 88 167 175 88 167 171 88 167 167 88 167 163 88 167 159 88 167 155 88 167 151 88 167 147 88 167 143 88 167 139 88 167 135 88 167 131 88 167 127 88 167 123 88 167 119 88 167 115 88 167 111 88 167 107 88 167 103 88 167 99 88 167 95 88 167 91 88 167 87 88 167 83 88 167 79 88 167 75 88 167 71 88 167 67 88 167 63 88 167 59 88 167 55 88 167 51 88 167 47 88 167 43 88 167 39 88 167 35 88 167 31 88 167 27 88 167 23 88 167 19 88 167 15 88 167 11 88 167 7 88 167 3 88 
163 255 92 163 251 92 163 247 92 163 243 92 163 239 92 163 235 92 163 231 92 163 227 92 163 223 92 163 219 92 163 215 92 163 211 92 163 207 92 163 203 92 163 199 92 163 195 92 163 191 92 163 187 92 163 183 92 163 179 92 163 175 92 163 171 92 163 167 92 163 163 92 163 159 92 163 155 92 163 151 92 163 147 92 163 143 92 163 139 92 163 135 92 163 131 92 163 127 92 163 123 92 163 119 92 163 115 92 163 111 92 163 107 92 163 103 92 163 99 92 163 95 92 163 91 92 163 87 92 163 83 92 163 79 92 163 75 92 163 71 92 163 67 92 163 63 92 163 59 92 163 55 92 163 51 92 163 47 92 163 43 92 163 39 92 163 35 92 163 31 92 163 27 92 163 23 92 163 19 92 163 15 92 163 11 92 163 7 92 163 3 92 
159 255 96 159 251 96 159 247 96 159 243 96 159 239 96 159 235 96 159 231 96 159 227 96 159 223 96 159 219 96 159 215 96 159 211 96 159 207 96 159 203 96 159 199 96 159 195 96 159 191 96 159 187 96 159 183 96 159 179 96 159 175 96 159 171 96 159 167 96 159 163 96 159 159 96 159 155 96 159 151 96 159 147 96 159 143 96 159 139 96 159 135 96 159 131 96 159 127 96 159 123 96 159 119 96 159 115 96 159 111 96 159 107 96 159 103 96 159 99 96 159 95 96 159 91 96 159 87 96 159 83 96 159 79 96 159 75 96 159 71 96 159 67 96 159 63 96 159 59 96 159 55 96 159 51 96 159 47 96 159 43 96 159 39 96 159 35 96 159 31 96 159 27 96 159 23 96 159 19 96 159 15 96 159 11 96 159 7 96 159 3 96 
155 255 100 155 251 100 155 247 100 155 243 100 155 239 100 155 235 100 155 231 100 155 227 100 155 223 100 155 219 100 155 215 100 155 211 100 155 207 100 155 203 100 155 199 100 155 195 100 155 191 100 155 187 100 155 183 100 155 179 100 155 175 100 155 171 100 155 167 100 155 163 100 155 159 100 155 155 100 155 151 100 155 147 100 155 143 100 155 139 100 155 135 100 155 131 100 155 127 100 155 123 100 155 119 100 155 115 100 155 111 100 155 107 100 155 103 100 155 99 100 155 95 100 155 91 100 155 87 100 155 83 100 155 79 100 155 75 100 155 71 100 155 67 100 155 63 100 155 59 100 155 55 100 155 51 100 155 47 100 155 43 100 155 39 100 155 35 100 155 31 100 155 27 100 155 23 100 155 19 100 155 15 100 155 11 100 155 7 100 155 3 100 
151 255 104 151 251 104 151 247 104 151 243 104 151 239 104 151 235 104 151 231 104 151 227 104 151 223 104 151 219 104 151 215 104 151 211 104 151 207 104 151 203 104 151 199 104 151 195 104 151 191 104 151 187 104 151 183 104 151 179 104 151 175 104 151 171 104 151 167 104 151 163 104 151 159 104 151 155 104 151 151 104 151 147 104 151 143 104 151 139 104 151 135 104 151 131 104 151 127 104 151 123 104 151 119 104 151 115 104 151 111 104 151 107 104 151 103 104 151 99 104 151 95 104 151 91 104 151 87 104 151 83 104 151 79 104 151 75 104 151 71 104 151 67 104 151 63 104 151 59 104 151 55 104 151 51 104 151 47 104 151 43 104 151 39 104 151 35 104 151 31 104 151 27 104 151 23 104 151 19 104 151 15 104 151 11 104 151 7 104 151 3 104 
147 255 108 147 251 108 147 247 108 147 243 108 147 239 108 147 235 108 147 231 108 147 227 108 147 223 108 147 219 108 147 215 108 147 211 108 147 207 108 147 203 108 147 199 108 147 195 108 147 191 108 147 187 108 147 183 108 147 179 108 147 175 108 147 171 108 147 167 108 147 163 108 147 159 108 147 155 108 147 151 108 147 147 108 147 143 108 147 139 108 147 135 108 147 131 108 147 127 108 147 123 108 147 119 108 147 115 108 147 111 108 147 107 108 147 103 108 147 99 108 147 95 108 147 91 108 147 87 108 147 83 108 147 79 108 147 75 108 147 71 108 147 67 108 147 63 108 147 59 108 147 55 108 147 51 108 147 47 108 147 43 108 147 39 108 147 35 108 147 31 108 147 27 108 147 23 108 147 19 108 147 15 108 147 11 108 147 7 108 147 3 108 
143 255 112 143 251 112 143 247 112 143 243 112 143 239 112 143 235 112 143 231 112 143 227 112 143 223 112 143 219 112 143 215 112 143 211 112 143 207 112 143 203 112 143 199 112 143 195 112 143 191 112 143 187 112 143 183 112 143 179 112 143 175 112 143 171 112 143 167 112 143 163 112 143 159 112 143 155 112 143 151 112 143 147 112 143 143 112 143 139 112 143 135 112 143 131 112 143 127 112 143 123 112 143 119 112 143 115 112 143 111 112 143 107 112 143 103 112 143 99 112 143 95 112 143 91 112 143 87 112 143 83 112 143 79 112 143 75 112 143 71 112 143 67 112 143 63 112 143 59 112 143 55 112 143 51 112 143 47 112 143 43 112 143 39 112 143 35 112 143 31 112 143 27 112 143 23 112 143 19 112 143 15 112 143 11 112 143 7 112 143 3 112 
139 255 116 139 251 116 139 247 116 139 243 116 139 239 116 139 235 116 139 231 116 139 227 116 139 223 116 139 219 116 139 215 116 139 211 116 139 207 116 139 203 116 139 199 116 139 195 116 139 191 116 139 187 116 139 183 116 139 179 116 139 175 116 139 171 116 139 167 116 139 163 116 139 159 116 139 155 116 139 151 116 139 147 116 139 143 116 139 139 116 139 135 116 139 131 116 139 127 116 139 123 116 139 119 116 139 115 116 139 111 116 139 107 116 139 103 116 139 99 116 139 95 116 139 91 116 139 87 116 139 83 116 139 79 116 139 75 116 139 71 116 139 67 116 139 63 116 139 59 116 139 55 116 139 51 116 139 47 116 139 43 116 139 39 116 139 35 116 139 31 116 139 27 116 139 23 116 139 19 116 139 15 116 139 11 116 139 7 116 139 3 116 
135 255 120 135 251 120 135 247 120 135 243 120 135 239 120 135 235 120 135 231 120 135 227 120 135 223 120 135 219 120 135 215 120 135 211 120 135 207 120 135 203 120 135 199 120 135 195 120 135 191 120 135 187 120 135 183 120 135 179 120 135 175 120 135 171 120 135 167 120 135 163 120 135 159 120 135 155 120 135 151 120 135 147 120 135 143 120 135 139 120 135 135 120 135 131 120 135 127 120 135 123 120 135 119 120 135 115 120 135 111 120 135 107 120 135 103 120 135 99 120 135 95 120 135 91 120 135 87 120 135 83 120 135 79 120 135 75 120 135 71 120 135 67 120 135 63 120 135 59 120 135 55 120 135 51 120 135 47 120 135 43 120 135 39 120 135 35 120 135 31 120 135 27 120 135 23 120 135 19 120 135 15 120 135 11 120 135 7 120 135 3 120 
131 255 124 131 251 124 131 247 124 131 243 124 131 239 124 131 235 124 131 231 124 131 227 124 131 223 124 131 219 124 131 215 124 131 211 124 131 207 124 131 203 124 131 199 124 131 195 124 131 191 124 131 187 124 131 183 124 131 179 124 131 175 124 131 171 124 131 167 124 131 163 124 131 159 124 131 155 124 131 151 124 131 147 124 131 143 124 131 139 124 131 135 124 131 131 124 131 127 124 131 123 124 131 119 124 131 115 124 131 111 124 131 107 124 131 103 124 131 99 124 131 95 124 131 91 124 131 87 124 131 83 124 131 79 124 131 75 124 131 71 124 131 67 124 131 63 124 131 59 124 131 55 124 131 51 124 131 47 124 131 43 124 131 39 124 131 35 124 131 31 124 131 27 124 131 23 124 131 19 124 131 15 124 131 11 124 131 7 124 131 3 124 
127 255 128 127 251 128 127 247 128 127 243 128 127 239 128 127 235 128 127 231 128 127 227 128 127 223 128 127 219 128 127 215 128 127 211 128 127 207 128 127 203 128 127 199 128 127 195 128 127 191 128 127 187 128 127 183 128 127 179 128 127 175 128 127 171 128 127 167 128 127 163 128 127 159 128 127 155 128 127 151 128 127 147 128 127 143 128 127 139 128 127 135 128 127 131 128 127 127 128 127 123 128 127 119 128 127 115 128 127 111 128 127 107 128 127 103 128 127 99 128 127 95 128 127 91 128 127 87 128 127 83 128 127 79 128 127 75 128 127 71 128 127 67 128 127 63 128 127 59 128 127 55 128 127 51 128 127 47 128 127 43 128 127 39 128 127 35 128 127 31 128 127 27 128 127 23 128 127 19 128 127 15 128 127 11 128 127 7 128 127 3 128 
123 255 132 123 251 132 123 247 132 123 243 132 123 239 132 123 235 132 123 231 132 123 227 132 123 223 132 123 219 132 123 215 132 123 211 132 123 207 132 123 203 132 123 199 132 123 195 132 123 191 132 123 187 132 123 183 132 123 179 132 123 175 132 123 171 132 123 167 132 123 163 132 123 159 132 123 155 132 123 151 132 123 147 132 123 143 132 123 139 132 123 135 132 123 131 132 123 127 132 123 123 132 123 119 132 123 115 132 123 111 132 123 107 132 123 103 132 123 99 132 123 95 132 123 91 132 123 87 132 123 83 132 123 79 132 123 75 132 123 71 132 123 67 132 123 63 132 123 59 132 123 55 132 123 51 132 123 47 132 123 43 132 123 39 132 123 35 132 123 31 132 123 27 132 123 23 132 123 19 132 123 15 132 123 11 132 123 7 132 123 3 132 
119 255 136 119 251 136 119 247 136 119 243 136 119 239 136 119 235 136 119 231 136 119 227 136 119 223 136 119 219 136 119 215 136 119 211 136 119 207 136 119 203 136 119 199 136 119 195 136 119 191 136 119 187 136 119 183 136 119 179 136 119 175 136 119 171 136 119 167 136 119 163 136 119 159 136 119 155 136 119 151 136 119 147 136 119 143 136 119 139 136 119 135 136 119 131 136 119 127 136 119 123 136 119 119 136 119 115 136 119 111 136 119 107 136 119 103 136 119 99 136 119 95 136 119 91 136 119 87 136 119 83 136 119 79 136 119 75 136 119 71 136 119 67 136 119 63 136 119 59 136 119 55 136 119 51 136 119 47 136 119 43 136 119 39 136 119 35 136 119 31 136 119 27 136 119 23 136 119 19 136 119 15 136 119 11 136 119 7 136 119 3 136 
115 255 140 115 251 140 115 247 140 115 243 140 115 239 140 115 235 140 115 231 140 115 227 140 115 223 140 115 219 140 115 215 140 115 211 140 115 207 140 115 203 140 115 199 140 115 195 140 115 191 140 115 187 140 115 183 140 115 179 140 115 175 140 115 171 140 115 167 140 115 163 140 115 159 140 115 155 140 115 151 140 115 147 140 115 143 140 115 139 140 115 135 140 115 131 140 115 127 140 115 123 140 115 119 140 115 115 140 115 111 140 115 107 140 115 103 140 115 99 140 115 95 140 115 91 140 115 87 140 115 83 140 115 79 140 115 75 140 115 71 140 115 67 140 115 63 140 115 59 140 115 55 140 115 51 140 115 47 140 115 43 140 115 39 140 115 35 140 115 31 140 115 27 140 115 23 140 115 19 140 115 15 140 115 11 140 115 7 140 115 3 140 
111 255 144 111 251 144 111 247 144 111 243 144 111 239 144 111 235 144 111 231 144 111 227 144 111 223 144 111 219 144 111 215 144 111 211 144 111 207 144 111 203 144 111 199 144 111 195 144 111 191 144 111 187 144 111 183 144 111 179 144 111 175 144 111 171 144 111 167 144 111 163 144 111 159 144 111 155 144 111 151 144 111 147 144 111 143 144 111 139 144 111 135 144 111 131 144 111 127 144 111 123 144 111 119 144 111 115 144 111 111 144 111 107 144 111 103 144 111 99 144 111 95 144 111 91 144 111 87 144 111 83 144 111 79 144 111 75 144 111 71 144 111 67 144 111 63 144 111 59 144 111 55 144 111 51 144 111 47 144 111 43 144 111 39 144 111 35 144 111 31 144 111 27 144 111 23 144 111 19 144 111 15 144 111 11 144 111 7 144 111 3 144 
107 255 148 107 251 148 107 247 148 107 243 148 107 239 148 107 235 148 107 231 148 107 227 148 107 223 148 107 219 148 107 215 148 107 211 148 107 207 148 107 203 148 107 199 148 107 195 148 107 191 148 107 187 148 107 183 148 107 179 148 107 175 148 107 171 148 107 167 148 107 163 148 107 159 148 107 155 148 107 151 148 107 147 148 107 143 148 107 139 148 107 135 148 107 131 148 107 127 148 107 123 148 107 119 148 107 115 148 107 111 148 107 107 148 107 103 148 107 99 148 107 95 148 107 91 148 107 87 148 107 83 148 107 79 148 107 75 148 107 71 148 107 67 148 107 63 148 107 59 148 107 55 148 107 51 148 107 47 148 107 43 148 107 39 148 107 35 148 107 31 148 107 27 148 107 23 148 107 19 148 107 15 148 107 11 148 107 7 148 107 3 148 
103 255 152 103 251 152 103 247 152 103 243 152 103 239 152 103 235 152 103 231 152 103 227 152 103 223 152 103 219 152 103 215 152 103 211 152 103 207 152 103 203 152 103 199 152 103 195 152 103 191 152 103 187 152 103 183 152 103 179 152 103 175 152 103 171 152 103 167 152 103 163 152 103 159 152 103 155 152 103 151 152 103 147 152 103 143 152 103 139 152 103 135 152 103 131 152 103 127 152 103 123 152 103 119 152 103 115 152 103 111 152 103 107 152 103 103 152 103 99 152 103 95 152 103 91 152 103 87 152 103 83 152 103 79 152 103 75 152 103 71 152 103 67 152 103 63 152 103 59 152 103 55 152 103 51 152 103 47 152 103 43 152 103 39 152 103 35 152 103 31 152 103 27 152 103 23 152 103 19 152 103 15 152 103 11 152 103 7 152 103 3 152 
99 255 156 99 251 156 99 247 156 99 243 156 99 239 156 99 235 156 99 231 156 99 227 156 99 223 156 99 219 156 99 215 156 99 211 156 99 207 156 99 203 156 99 199 156 99 195 156 99 191 156 99 187 156 99 183 156 99 179 156 99 175 156 99 171 156 99 167 156 99 163 156 99 159 156 99 155 156 99 151 156 99 147 156 99 143 156 99 139 156 99 135 156 99 131 156 99 127 156 99 123 156 99 119 156 99 115 156 99 111 156 99 107 156 99 103 156 99 99 156 99 95 156 99 91 156 99 87 156 99 83 156 99 79 156 99 75 156 99 71 156 99 67 156 99 63 156 99 59 156 99 55 156 99 51 156 99 47 156 99 43 156 99 39 156 99 35 156 99 31 156 99 27 156 99 23 156 99 19 156 99 15 156 99 11 156 99 7 156 99 3 156 
95 255 160 95 251 160 95 247 160 95 243 160 95 239 160 95 235 160 95 231 160 95 227 160 95 223 160 95 219 160 95 215 160 95 211 160 95 207 160 95 203 160 95 199 160 95 195 160 95 191 160 95 187 160 95 183 160 95 179 160 95 175 160 95 171 160 95 167 160 95 163 160 95 159 160 95 155 160 95 151 160 95 147 160 95 143 160 95 139 160 95 135 160 95 131 160 95 127 160 95 123 160 95 119 160 95 115 160 95 111 160 95 107 160 95 103 160 95 99 160 95 95 160 95 91 160 95 87 160 95 83 160 95 79 160 95 75 160 95 71 160 95 67 160 95 63 160 95 59 160 95 55 160 95 51 160 95 47 160 95 43 160 95 39 160 95 35 160 95 31 160 95 27 160 95 23 160 95 19 160 95 15 160 95 11 160 95 7 160 95 3 160 
91 255 164 91 251 164 91 247 164 91 243 164 91 239 164 91 235 164 91 231 164 91 227 164 91 223 164 91 219 164 91 215 164 91 211 164 91 207 164 91 203 164 91 199 164 91 195 164 91 191 164 91 187 164 91 183 164 91 179 164 91 175 164 91 171 164 91 167 164 91 163 164 91 159 164 91 155 164 91 151 164 91 147 164 91 143 164 91 139 164 91 135 164 91 131 164 91 127 164 91 123 164 91 119 164 91 115 164 91 111 164 91 107 164 91 103 164 91 99 164 91 95 164 91 91 164 91 87 164 91 83 164 91 79 164 91 75 164 91 71 164 91 67 164 91 63 164 91 59 164 91 55 164 91 51 164 91 47 164 91 43 164 91 39 164 91 35 164 91 31 164 91 27 164 91 23 164 91 19 164 91 15 164 91 11 164 91 7 164 91 3 164 
87 255 168 87 251 168 87 247 168 87 243 168 87 239 168 87 235 168 87 231 168 87 227 168 87 223 168 87 219 168 87 215 168 87 211 168 87 207 168 87 203 168 87 199 168 87 195 168 87 191 168 87 187 168 87 183 168 87 179 168 87 175 168 87 171 168 87 167 168 87 163 168 87 159 168 87 155 168 87 151 168 87 147 168 87 143 168 87 139 168 87 135 168 87 131 168 87 127 168 87 123 168 87 119 168 87 115 168 87 111 168 87 107 168 87 103 168 87 99 168 87 95 168 87 91 168 87 87 168 87 83 168 87 79 168 87 75 168 87 71 168 87 67 168 87 63 168 87 59 168 87 55 168 87 51 168 87 47 168 87 43 168 87 39 168 87 35 168 87 31 168 87 27 168 87 23 168 87 19 168 87 15 168 87 11 168 87 7 168 87 3 168 
83 255 172 83 251 172 83 247 172 83 243 172 83 239 172 83 235 172 83 231 172 83 227 172 83 223 172 83 219 172 83 215 172 83 211 172 83 207 172 83 203 172 83 199 172 83 195 172 83 191 172 83 187 172 83 183 172 83 179 172 83 175 172 83 171 172 83 167 172 83 163 172 83 159 172 83 155 172 83 151 172 83 147 172 83 143 172 83 139 172 83 135 172 83 131 172 83 127 172 83 123 172 83 119 172 83 115 172 83 111 172 83 107 172 83 103 172 83 99 172 83 95 172 83 91 172 83 87 172 83 83 172 83 79 172 83 75 172 83 71 172 83 67 172 83 63 172 83 59 172 83 55 172 83 51 172 83 47 172 83 43 172 83 39 172 83 35 172 83 31 172 83 27 172 83 23 172 83 19 172 83 15 172 83 11 172 83 7 172 83 3 172 
79 255 176 79 251 176 79 247 176 79 243 176 79 239 176 79 235 176 79 231 176 79 227 176 79 223 176 79 219 176 79 215 176 79 211 176 79 207 176 79 203 176 79 199 176 79 195 176 79 191 176 79 187 176 79 183 176 79 179 176 79 175 176 79 171 176 79 167 176 79 163 176 79 159 176 79 155 176 79 151 176 79 147 176 79 143 176 79 139 176 79 135 176 79 131 176 79 127 176 79 123 176 79 119 176 79 115 176 79 111 176 79 107 176 79 103 176 79 99 176 79 95 176 79 91 176 79 87 176 79 83 176 79 79 176 79 75 176 79 71 176 79 67 176 79 63 176 79 59 176 79 55 176 79 51 176 79 47 176 79 43 176 79 39 176 79 35 176 79 31 176 79 27 176 79 23 176 79 19 176 79 15 176 79 11 176 79 7 176 79 3 176 
75 255 180 75 251 180 75 247 180 75 243 180 75 239 180 75 235 180 75 231 180 75 227 180 75 223 180 75 219 180 75 215 180 75 211 180 75 207 180 75 203 180 75 199 180 75 195 180 75 191 180 75 187 180 75 183 180 75 179 180 75 175 180 75 171 180 75 167 180 75 163 180 75 159 180 75 155 180 75 151 180 75 147 180 75 143 180 75 139 180 75 135 180 75 131 180 75 127 180 75 123 180 75 119 180 75 115 180 75 111 180 75 107 180 75 103 180 75 99 180 75 95 180 75 91 180 75 87 180 75 83 180 75 79 180 75 75 180 75 71 180 75 67 180 75 63 180 75 59 180 75 55 180 75 51 180 75 47 180 75 43 180 75 39 180 75 35 180 75 31 180 75 27 180 75 23 180 75 19 180 75 15 180 75 11 180 75 7 180 75 3 180 
71 255 184 71 251 184 71 247 184 71 243 184 71 239 184 71 235 184 71 231 184 71 227 184 71 223 184 71 219 184 71 215 184 71 211 184 71 207 184 71 203 184 71 199 184 71 195 184 71 191 184 71 187 184 71 183 184 71 179 184 71 175 184 71 171 184 71 167 184 71 163 184 71 159 184 71 155 184 71 151 184 71 147 184 71 143 184 71 139 184 71 135 184 71 131 184 71 127 184 71 123 184 71 119 184 71 115 184 71 111 184 71 107 184 71 103 184 71 99 184 71 95 184 71 91 184 71 87 184 71 83 184 71 79 184 71 75 184 71 71 184 71 67 184 71 63 184 71 59 184 71 55 184 71 51 184 71 47 184 71 43 184 71 39 184 71 35 184 71 31 184 71 27 184 71 23 184 71 19 184 71 15 184 71 11 184 71 7 184 71 3 184 
67 255 188 67 251 188 67 247 188 67 243 188 67 239 188 67 235 188 67 231 188 67 227 188 67 223 188 67 219 188 67 215 188 67 211 188 67 207 188 67 203 188 67 199 188 67 195 188 67 191 188 67 187 188 67 183 188 67 179 188 67 175 188 67 171 188 67 167 188 67 163 188 67 159 188 67 155 188 67 151 188 67 147 188 67 143 188 67 139 188 67 135 188 67 131 188 67 127 188 67 123 188 67 119 188 67 115 188 67 111 188 67 107 188 67 103 188 67 99 188 67 95 188 67 91 188 67 87 188 67 83 188 67 79 188 67 75 188 67 71 188 67 67 188 67 63 188 67 59 188 67 55 188 67 51 188 67 47 188 67 43 188 67 39 188 67 35 188 67 31 188 67 27 188 67 23 188 67 19 188 67 15 188 67 11 188 67 7 188 67 3 188 
63 255 192 63 251 192 63 247 192 63 243 192 63 239 192 63 235 192 63 231 192 63 227 192 63 223 192 63 219 192 63 215 192 63 211 192 63 207 192 63 203 192 63 199 192 63 195 192 63 191 192 63 187 192 63 183 192 63 179 192 63 175 192 63 171 192 63 167 192 63 163 192 63 159 192 63 155 192 63 151 192 63 147 192 63 143 192 63 139 192 63 135 192 63 131 192 63 127 192 63 123 192 63 119 192 63 115 192 63 111 192 63 107 192 63 103 192 63 99 192 63 95 192 63 91 192 63 87 192 63 83 192 63 79 192 63 75 192 63 71 192 63 67 192 63 63 192 63 59 192 63 55 192 63 51 192 63 47 192 63 43 192 63 39 192 63 35 192 63 31 192 63 27 192 63 23 192 63 19 192 63 15 192 63 11 192 63 7 192 63 3 192 
59 255 196 59 251 196 59 247 196 59 243 196 59 239 196 59 235 196 59 231 196 59 227 196 59 223 196 59 219 196 59 215 196 59 211 196 59 207 196 59 203 196 59 199 196 59 195 196 59 191 196 59 187 196 59 183 196 59 179 196 59 175 196 59 171 196 59 167 196 59 163 196 59 159 196 59 155 196 59 151 196 59 147 196 59 143 196 59 139 196 59 135 196 59 131 196 59 127 196 59 123 196 59 119 196 59 115 196 59 111 196 59 107 196 59 103 196 59 99 196 59 95 196 59 91 196 59 87 196 59 83 196 59 79 196 59 75 196 59 71 196 59 67 196 59 63 196 59 59 196 59 55 196 59 51 196 59 47 196 59 43 196 59 39 196 59 35 196 59 31 196 59 27 196 59 23 196 59 19 196 59 15 196 59 11 196 59 7 196 59 3 196 
55 255 200 55 251 200 55 247 200 55 243 200 55 239 200 55 235 200 55 231 200 55 227 200 55 223 200 55 219 200 55 215 200 55 211 200 55 207 200 55 203 200 55 199 200 55 195 200 55 191 200 55 187 200 55 183 200 55 179 200 55 175 200 55 171 200 55 167 200 55 163 200 55 159 200 55 155 200 55 151 200 55 147 200 55 143 200 55 139 200 55 135 200 55 131 200 55 127 200 55 123 200 55 119 200 55 115 200 55 111 200 55 107 200 55 103 200 55 99 200 55 95 200 55 91 200 55 87 200 55 83 200 55 79 200 55 75 200 55 71 200 55 67 200 55 63 200 55 59 200 55 55 200 55 51 200 55 47 200 55 43 200 55 39 200 55 35 200 55 31 200 55 27 200 55 23 200 55 19 200 55 15 200 55 11 200 55 7 200 55 3 200 
51 255 204 51 251 204 51 247 204 51 243 204 51 239 204 51 235 204 51 231 204 51 227 204 51 223 204 51 219 204 51 215 204 51 211 204 51 207 204 51 203 204 51 199 204 51 195 204 51 191 204 51 187 204 51 183 204 51 179 204 51 175 204 51 171 204 51 167 204 51 163 204 51 159 204 51 155 204 51 151 204 51 147 204 51 143 204 51 139 204 51 135 204 51 131 204 51 127 204 51 123 204 51 119 204 51 115 204 51 111 204 51 107 204 51 103 204 51 99 204 51 95 204 51 91 204 51 87 204 51 83 204 51 79 204 51 75 204 51 71 204 51 67 204 51 63 204 51 59 204 51 55 204 51 51 204 51 47 204 51 43 204 51 39 204 51 35 204 51 31 204 51 27 204 51 23 204 51 19 204 51 15 204 51 11 204 51 7 204 51 3 204 
47 255 208 47 251 208 47 247 208 47 243 208 47 239 208 47 235 208 47 231 208 47 227 208 47 223 208 47 219 208 47 215 208 47 211 208 47 207 208 47 203 208 47 199 208 47 195 208 47 191 208 47 187 208 47 183 208 47 179 208 47 175 208 47 171 208 47 167 208 47 163 208 47 159 208 47 155 208 47 151 208 47 147 208 47 143 208 47 139 208 47 135 208 47 131 208 47 127 208 47 123 208 47 119 208 47 115 208 47 111 208 47 107 208 47 103 208 47 99 208 47 95 208 47 91 208 47 87 208 47 83 208 47 79 208 47 75 208 47 71 208 47 67 208 47 63 208 47 59 208 47 55 208 47 51 208 47 47 208 47 43 208 47 39 208 47 35 208 47 31 208 47 27 208 47 23 208 47 19 208 47 15 208 47 11 208 47 7 208 47 3 208 
43 255 212 43 251 212 43 247 212 43 243 212 43 239 212 43 235 212 43 231 212 43 227 212 43 223 212 43 219 212 43 215 212 43 211 212 43 207 212 43 203 212 43 199 212 43 195 212 43 191 212 43 187 212 43 183 212 43 179 212 43 175 212 43 171 212 43 167 212 43 163 212 43 159 212 43 155 212 43 151 212 43 147 212 43 143 212 43 139 212 43 135 212 43 131 212 43 127 212 43 123 212 43 119 212 43 115 212 43 111 212 43 107 212 43 103 212 43 99 212 43 95 212 43 91 212 43 87 212 43 83 212 43 79 212 43 75 212 43 71 212 43 67 212 43 63 212 43 59 212 43 55 212 43 51 212 43 47 212 43 43 212 43 39 212 43 35 212 43 31 212 43 27 212 43 23 212 43 19 212 43 15 212 43 11 212 43 7 212 43 3 212 
39 255 216 39 251 216 39 247 216 39 243 216 39 239 216 39 235 216 39 231 216 39 227 216 39 223 216 39 219 216 39 215 216 39 211 216 39 207 216 39 203 216 39 199 216 39 195 216 39 191 216 39 187 216 39 183 216 39 179 216 39 175 216 39 171 216 39 167 216 39 163 216 39 159 216 39 155 216 39 151 216 39 147 216 39 143 216 39 139 216 39 135 216 39 131 216 39 127 216 39 123 216 39 119 216 39 115 216 39 111 216 39 107 216 39 103 216 39 99 216 39 95 216 39 91 216 39 87 216 39 83 216 39 79 216 39 75 216 39 71 216 39 67 216 39 63 216 39 59 216 39 55 216 39 51 216 39 47 216 39 43 216 39 39 216 39 35 216 39 31 216 39 27 216 39 23 216 39 19 216 39 15 216 39 11 216 39 7 216 39 3 216 
35 255 220 35 251 220 35 247 220 35 243 220 35 239 220 35 235 220 35 231 220 35 227 220 35 223 220 35 219 220 35 215 220 35 211 220 35 207 220 35 203 220 35 199 220 35 195 220 35 191 220 35 187 220 35 183 220 35 179 220 35 175 220 35 171 220 35 167 220 35 163 220 35 159 220 35 155 220 35 151 220 35 147 220 35 143 220 35 139 220 35 135 220 35 131 220 35 127 220 35 123 220 35 119 220 35 115 220 35 111 220 35 107 220 35 103 220 35 99 220 35 95 220 35 91 220 35 87 220 35 83 220 35 79 220 35 75 220 35 71 220 35 67 220 35 63 220 35 59 220 35 55 220 35 51 220 35 47 220 35 43 220 35 39 220 35 35 220 35 31 220 35 27 220 35 23 220 35 19 220 35 15 220 35 11 220 35 7 220 35 3 220 
31 255 224 31 251 224 31 247 224 31 243 224 31 239 224 31 235 224 31 231 224 31 227 224 31 223 224 31 219 224 31 215 224 31 211 224 31 207 224 31 203 224 31 199 224 31 195 224 31 191 224 31 187 224 31 183 224 31 179 224 31 175 224 31 171 224 31 167 224 31 163 224 31 159 224 31 155 224 31 151 224 31 147 224 31 143 224 31 139 224 31 135 224 31 131 224 31 127 224 31 123 224 31 119 224 31 115 224 31 111 224 31 107 224 31 103 224 31 99 224 31 95 224 31 91 224 31 87 224 31 83 224 31 79 224 31 75 224 31 71 224 31 67 224 31 63 224 31 59 224 31 55 224 31 51 224 31 47 224 31 43 224 31 39 224 31 35 224 31 31 224 31 27 224 31 23 224 31 19 224 31 15 224 31 11 224 31 7 224 31 3 224 
27 255 228 27 251 228 27 247 228 27 243 228 27 239 228 27 235 228 27 231 228 27 227 228 27 223 228 27 219 228 27 215 228 27 211 228 27 207 228 27 203 228 27 199 228 27 195 228 27 191 228 27 187 228 27 183 228 27 179 228 27 175 228 27 171 228 27 167 228 27 163 228 27 159 228 27 155 228 27 151 228 27 147 228 27 143 228 27 139 228 27 135 228 27 131 228 27 127 228 27 123 228 27 119 228 27 115 228 27 111 228 27 107 228 27 103 228 27 99 228 27 95 228 27 91 228 27 87 228 27 83 228 27 79 228 27 75 228 27 71 228 27 67 228 27 63 228 27 59 228 27 55 228 27 51 228 27 47 228 27 43 228 27 39 228 27 35 228 27 31 228 27 27 228 27 23 228 27 19 228 27 15 228 27 11 228 27 7 228 27 3 228 
23 255 232 23 251 232 23 247 232 23 243 232 23 239 232 23 235 232 23 231 232 23 227 232 23 223 232 23 219 232 23 215 232 23 211 232 23 207 232 23 203 232 23 199 232 23 195 232 23 191 232 23 187 232 23 183 232 23 179 232 23 175 232 23 171 232 23 167 232 23 163 232 23 159 232 23 155 232 23 151 232 23 147 232 23 143 232 23 139 232 23 135 232 23 131 232 23 127 232 23 123 232 23 119 232 23 115 232 23 111 232 23 107 232 23 103 232 23 99 232 23 95 232 23 91 232 23 87 232 23 83 232 23 79 232 23 75 232 23 71 232 23 67 232 23 63 232 23 59 232 23 55 232 23 51 232 23 47 232 23 43 232 23 39 232 23 35 232 23 31 232 23 27 232 23 23 232 23 19 232 23 15 232 23 11 232 23 7 232 23 3 232 
19 255 236 19 251 236 19 247 236 19 243 236 19 239 236 19 235 236 19 231 236 19 227 236 19 223 236 19 219 236 19 215 236 19 211 236 19 207 236 19 203 236 19 199 236 19 195 236 19 191 236 19 187 236 19 183 236 19 179 236 19 175 236 19 171 236 19 167 236 19 163 236 19 159 236 19 155 236 19 151 236 19 147 236 19 143 236 19 139 236 19 135 236 19 131 236 19 127 236 19 123 236 19 119 236 19 115 236 19 111 236 19 107 236 19 103 236 19 99 236 19 95 236 19 91 236 19 87 236 19 83 236 19 79 236 19 75 236 19 71 236 19 67 236 19 63 236 19 59 236 19 55 236 19 51 236 19 47 236 19 43 236 19 39 236 19 35 236 19 31 236 19 27 236 19 23 236 19 19 236 19 15 236 19 11 236 19 7 236 19 3 236 
15 255 240 15 251 240 15 247 240 15 243 240 15 239 240 15 235 240 15 231 240 15 227 240 15 223 240 15 219 240 15 215 240 15 211 240 15 207 240 15 203 240 15 199 240 15 195 240 15 191 240 15 187 240 15 183 240 15 179 240 15 175 240 15 171 240 15 167 240 15 163 240 15 159 240 15 155 240 15 151 240 15 147 240 15 143 240 15 139 240 15 135 240 15 131 240 15 127 240 15 123 240 15 119 240 15 115 240 15 111 240 15 107 240 15 103 240 15 99 240 15 95 240 15 91 240 15 87 240 15 83 240 15 79 240 15 75 240 15 71 240 15 67 240 15 63 240 15 59 240 15 55 240 15 51 240 15 47 240 15 43 240 15 39 240 15 35 240 15 31 240 15 27 240 15 23 240 15 19 240 15 15 240 15 11 240 15 7 240 15 3 240 
11 255 244 11 251 244 11 247 244 11 243 244 11 239 244 11 235 244 11 231 244 11 227 244 11 223 244 11 219 244 11 215 244 11 211 244 11 207 244 11 203 244 11 199 244 11 195 244 11 191 244 11 187 244 11 183 244 11 179 244 11 175 244 11 171 244 11 167 244 11 163 244 11 159 244 11 155 244 11 151 244 11 147 244 11 143 244 11 139 244 11 135 244 11 131 244 11 127 244 11 123 244 11 119 244 11 115 244 11 111 244 11 107 244 11 103 244 11 99 244 11 95 244 11 91 244 11 87 244 11 83 244 11 79 244 11 75 244 11 71 244 11 67 244 11 63 244 11 59 244 11 55 244 11 51 244 11 47 244 11 43 244 11 39 244 11 35 244 11 31 244 11 27 244 11 23 244 11 19 244 11 15 244 11 11 244 11 7 244 11 3 244 
7 255 248 7 251 248 7 247 248 7 243 248 7 239 248 7 235 248 7 231 248 7 227 248 7 223 248 7 219 248 7 215 248 7 211 248 7 207 248 7 203 248 7 199 248 7 195 248 7 191 248 7 187 248 7 183 248 7 179 248 7 175 248 7 171 248 7 167 248 7 163 248 7 159 248 7 155 248 7 151 248 7 147 248 7 143 248 7 139 248 7 135 248 7 131 248 7 127 248 7 123 248 7 119 248 7 115 248 7 111 248 7 107 248 7 103 248 7 99 248 7 95 248 7 91 248 7 87 248 7 83 248 7 79 248 7 75 248 7 71 248 7 67 248 7 63 248 7 59 248 7 55 248 7 51 248 7 47 248 7 43 248 7 39 248 7 35 248 7 31 248 7 27 248 7 23 248 7 19 248 7 15 248 7 11 248 7 7 248 7 3 248 
3 255 252 3 251 252 3 247 252 3 243 252 3 239 252 3 235 252 3 231 252 3 227 252 3 223 252 3 219 252 3 215 252 3 211 252 3 207 252 3 203 252 3 199 252 3 195 252 3 191 252 3 187 252 3 183 252 3 179 252 3 175 252 3 171 252 3 167 252 3 163 252 3 159 252 3 155 252 3 151 252 3 147 252 3 143 252 3 139 252 3 135 252 3 131 252 3 127 252 3 123 252 3 119 252 3 115 252 3 111 252 3 107 252 3 103 252 3 99 252 3 95 252 3 91 252 3 87 252 3 83 252 3 79 252 3 75 252 3 71 252 3 67 252 3 63 252 3 59 252 3 55 252 3 51 252 3 47 252 3 43 252 3 39 252 3 35 252 3 31 252 3 27 252 3 23 252 3 19 252 3 15 252 3 11 252 3 7 252 3 3 252 
