P3
64 64
255
0 0 255 0 4 255 0 8 255 0 12 255 0 16 255 0 20 255 0 24 255 0 28 255 0 32 255 0 36 255 0 40 255 0 44 255 0 48 255 0 52 255 0 56 255 0 60 255 0 64 255 0 68 255 0 72 255 0 76 255 0 80 255 0 84 255 0 88 255 0 92 255 0 96 255 0 100 255 0 104 255 0 108 255 0 112 255 0 116 255 0 120 255 0 124 255 0 128 255 0 132 255 0 136 255 0 140 255 0 144 255 0 148 255 0 152 255 0 156 255 0 160 255 0 164 255 0 168 255 0 172 255 0 176 255 0 180 255 0 184 255 0 188 255 0 192 255 0 196 255 0 200 255 0 204 255 0 208 255 0 212 255 0 216 255 0 220 255 0 224 255 0 228 255 0 232 255 0 236 255 0 240 255 0 244 255 0 248 255 0 252 255 
4 0 251 4 4 251 4 8 251 4 12 251 4 16 251 4 20 251 4 24 251 4 28 251 4 32 251 4 36 251 4 40 251 4 44 251 4 48 251 4 52 251 4 56 251 4 60 251 4 64 251 4 68 251 4 72 251 4 76 251 4 80 251 4 84 251 4 88 251 4 92 251 4 96 251 4 100 251 4 104 251 4 108 251 4 112 251 4 116 251 4 120 251 4 124 251 4 128 251 4 132 251 4 136 251 4 140 251 4 144 251 4 148 251 4 152 251 4 156 251 4 160 251 4 164 251 4 168 251 4 172 251 4 176 251 4 180 251 4 184 251 4 188 251 4 192 251 4 196 251 4 200 251 4 204 251 4 208 251 4 212 251 4 216 251 4 220 251 4 224 251 4 228 251 4 232 251 4 236 251 4 240 251 4 244 251 4 248 251 4 252 251 
8 0 247 8 4 247 8 8 247 8 12 247 8 16 247 8 20 247 8 24 247 8 28 247 8 32 247 8 36 247 8 40 247 8 44 247 8 48 247 8 52 247 8 56 247 8 60 247 8 64 247 8 68 247 8 72 247 8 76 247 8 80 247 8 84 247 8 88 247 8 92 247 8 96 247 8 100 247 8 104 247 8 108 247 8 112 247 8 116 247 8 120 247 8 124 247 8 128 247 8 132 247 8 136 247 8 140 247 8 144 247 8 148 247 8 152 247 8 156 247 8 160 247 8 164 247 8 168 247 8 172 247 8 176 247 8 180 247 8 184 247 8 188 247 8 192 247 8 196 247 8 200 247 8 204 247 8 208 247 8 212 247 8 216 247 8 220 247 8 224 247 8 228 247 8 232 247 8 236 247 8 240 247 8 244 247 8 248 247 8 252 247 
12 0 243 12 4 243 12 8 243 12 12 243 12 16 243 12 20 243 12 24 243 12 28 243 12 32 243 12 36 243 12 40 243 12 44 243 12 48 243 12 52 243 12 56 243 12 60 243 12 64 243 12 68 243 12 72 243 12 76 243 12 80 243 12 84 243 12 88 243 12 92 243 12 96 243 12 100 243 12 104 243 12 108 243 12 112 243 12 116 243 12 120 243 12 124 243 12 128 243 12 132 243 12 136 243 12 140 243 12 144 243 12 148 243 12 152 243 12 156 243 12 160 243 12 164 243 12 168 243 12 172 243 12 176 243 12 180 243 12 184 243 12 188 243 12 192 243 12 196 243 12 200 243 12 204 243 12 208 243 12 212 243 12 216 243 12 220 243 12 224 243 12 228 243 12 232 243 12 236 243 12 240 243 12 244 243 12 248 243 12 252 243 
16 0 239 16 4 239 16 8 239 16 12 239 16 16 239 16 20 239 16 24 239 16 28 239 16 32 239 16 36 239 16 40 239 16 44 239 16 48 239 16 52 239 16 56 239 16 60 239 16 64 239 16 68 239 16 72 239 16 76 239 16 80 239 16 84 239 16 88 239 16 92 239 16 96 239 16 100 239 16 104 239 16 108 239 16 112 239 16 116 239 16 120 239 16 124 239 16 128 239 16 132 239 16 136 239 16 140 239 16 144 239 16 148 239 16 152 239 16 156 239 16 160 239 16 164 239 16 168 239 16 172 239 16 176 239 16 180 239 16 184 239 16 188 239 16 192 239 16 196 239 16 200 239 16 204 239 16 208 239 16 212 239 16 216 239 16 220 239 16 224 239 16 228 239 16 232 239 16 236 239 16 240 239 16 244 239 16 248 239 16 252 239 
20 0 235 20 4 235 20 8 235 20 12 235 20 16 235 20 20 235 20 24 235 20 28 235 20 32 235 20 36 235 20 40 235 20 44 235 20 48 235 20 52 235 20 56 235 20 60 235 20 64 235 20 68 235 20 72 235 20 76 235 20 80 235 20 84 235 20 88 235 20 92 235 20 96 235 20 100 235 20 104 235 20 108 235 20 112 235 20 116 235 20 120 235 20 124 235 20 128 235 20 132 235 20 136 235 20 140 235 20 144 235 20 148 235 20 152 235 20 156 235 20 160 235 20 164 235 20 168 235 20 172 235 20 176 235 20 180 235 20 184 235 20 188 235 20 192 235 20 196 235 20 200 235 20 204 235 20 208 235 20 212 235 20 216 235 20 220 235 20 224 235 20 228 235 20 232 235 20 236 235 20 240 235 20 244 235 20 248 235 20 252 235 
24 0 231 24 4 231 24 8 231 24 12 231 24 16 231 24 20 231 24 24 231 24 28 231 24 32 231 24 36 231 24 40 231 24 44 231 24 48 231 24 52 231 24 56 231 24 60 231 24 64 231 24 68 231 24 72 231 24 76 231 24 80 231 24 84 231 24 88 231 24 92 231 24 96 231 24 100 231 24 104 231 24 108 231 24 112 231 24 116 231 24 120 231 24 124 231 24 128 231 24 132 231 24 136 231 24 140 231 24 144 231 24 148 231 24 152 231 24 156 231 24 160 231 24 164 231 24 168 231 24 172 231 24 176 231 24 180 231 24 184 231 24 188 231 24 192 231 24 196 231 24 200 231 24 204 231 24 208 231 24 212 231 24 216 231 24 220 231 24 224 231 24 228 231 24 232 231 24 236 231 24 240 231 24 244 231 24 248 231 24 252 231 
28 0 227 28 4 227 28 8 227 28 12 227 28 16 227 28 20 227 28 24 227 28 28 227 28 32 227 28 36 227 28 40 227 28 44 227 28 48 227 28 52 227 28 56 227 28 60 227 28 64 227 28 68 227 28 72 227 28 76 227 28 80 227 28 84 227 28 88 227 28 92 227 28 96 227 28 100 227 28 104 227 28 108 227 28 112 227 28 116 227 28 120 227 28 124 227 28 128 227 28 132 227 28 136 227 28 140 227 28 144 227 28 148 227 28 152 227 28 156 227 28 160 227 28 164 227 28 168 227 28 172 227 28 176 227 28 180 227 28 184 227 28 188 227 28 192 227 28 196 227 28 200 227 28 204 227 28 208 227 28 212 227 28 216 227 28 220 227 28 224 227 28 228 227 28 232 227 28 236 227 28 240 227 28 244 227 28 248 227 28 252 227 
32 0 223 32 4 223 32 8 223 32 12 223 32 16 223 32 20 223 32 24 223 32 28 223 32 32 223 32 36 223 32 40 223 32 44 223 32 48 223 32 52 223 32 56 223 32 60 223 32 64 223 32 68 223 32 72 223 32 76 223 32 80 223 32 84 223 32 88 223 32 92 223 32 96 223 32 100 223 32 104 223 32 108 223 32 112 223 32 116 223 32 120 223 32 124 223 32 128 223 32 132 223 32 136 223 32 140 223 32 144 223 32 148 223 32 152 223 32 156 223 32 160 223 32 164 223 32 168 223 32 172 223 32 176 223 32 180 223 32 184 223 32 188 223 32 192 223 32 196 223 32 200 223 32 204 223 32 208 223 32 212 223 32 216 223 32 220 223 32 224 223 32 228 223 32 232 223 32 236 223 32 240 223 32 244 223 32 248 223 32 252 223 
36 0 219 36 4 219 36 8 219 36 12 219 36 16 219 36 20 219 36 24 219 36 28 219 36 32 219 36 36 219 36 40 219 36 44 219 36 48 219 36 52 219 36 56 219 36 60 219 36 64 219 36 68 219 36 72 219 36 76 219 36 80 219 36 84 219 36 88 219 36 92 219 36 96 219 36 100 219 36 104 219 36 108 219 36 112 219 36 116 219 36 120 219 36 124 219 36 128 219 36 132 219 36 136 219 36 140 219 36 144 219 36 148 219 36 152 219 36 156 219 36 160 219 36 164 219 36 168 219 36 172 219 36 176 219 36 180 219 36 184 219 36 188 219 36 192 219 36 196 219 36 200 219 36 204 219 36 208 219 36 212 219 36 216 219 36 220 219 36 224 219 36 228 219 36 232 219 36 236 219 36 240 219 36 244 219 36 248 219 36 252 219 
40 0 215 40 4 215 40 8 215 40 12 215 40 16 215 40 20 215 40 24 215 40 28 215 40 32 215 40 36 215 40 40 215 40 44 215 40 48 215 40 52 215 40 56 215 40 60 215 40 64 215 40 68 215 40 72 215 40 76 215 40 80 215 40 84 215 40 88 215 40 92 215 40 96 215 40 100 215 40 104 215 40 108 215 40 112 215 40 116 215 40 120 215 40 124 215 40 128 215 40 132 215 40 136 215 40 140 215 40 144 215 40 148 215 40 152 215 40 156 215 40 160 215 40 164 215 40 168 215 40 172 215 40 176 215 40 180 215 40 184 215 40 188 215 40 192 215 40 196 215 40 200 215 40 204 215 40 208 215 40 212 215 40 216 215 40 220 215 40 224 215 40 228 215 40 232 215 40 236 215 40 240 215 40 244 215 40 248 215 40 252 215 
44 0 211 44 4 211 44 8 211 44 12 211 44 16 211 44 20 211 44 24 211 44 28 211 44 32 211 44 36 211 44 40 211 44 44 211 44 48 211 44 52 211 44 56 211 44 60 211 44 64 211 44 68 211 44 72 211 44 76 211 44 80 211 44 84 211 44 88 211 44 92 211 44 96 211 44 100 211 44 104 211 44 108 211 44 112 211 44 116 211 44 120 211 44 124 211 44 128 211 44 132 211 44 136 211 44 140 211 44 144 211 44 148 211 44 152 211 44 156 211 44 160 211 44 164 211 44 168 211 44 172 211 44 176 211 44 180 211 44 184 211 44 188 211 44 192 211 44 196 211 44 200 211 44 204 211 44 208 211 44 212 211 44 216 211 44 220 211 44 224 211 44 228 211 44 232 211 44 236 211 44 240 211 44 244 211 44 248 211 44 252 211 
48 0 207 48 4 207 48 8 207 48 12 207 48 16 207 48 20 207 48 24 207 48 28 207 48 32 207 48 36 207 48 40 207 48 44 207 48 48 207 48 52 207 48 56 207 48 60 207 48 64 207 48 68 207 48 72 207 48 76 207 48 80 207 48 84 207 48 88 207 48 92 207 48 96 207 48 100 207 48 104 207 48 108 207 48 112 207 48 116 207 48 120 207 48 124 207 48 128 207 48 132 207 48 136 207 48 140 207 48 144 207 48 148 207 48 152 207 48 156 207 48 160 207 48 164 207 48 168 207 48 172 207 48 176 207 48 180 207 48 184 207 48 188 207 48 192 207 48 196 207 48 200 207 48 204 207 48 208 207 48 212 207 48 216 207 48 220 207 48 224 207 48 228 207 48 232 207 48 236 207 48 240 207 48 244 207 48 248 207 48 252 207 
52 0 203 52 4 203 52 8 203 52 12 203 52 16 203 52 20 203 52 24 203 52 28 203 52 32 203 52 36 203 52 40 203 52 44 203 52 48 203 52 52 203 52 56 203 52 60 203 52 64 203 52 68 203 52 72 203 52 76 203 52 80 203 52 84 203 52 88 203 52 92 203 52 96 203 52 100 203 52 104 203 52 108 203 52 112 203 52 116 203 52 120 203 52 124 203 52 128 203 52 132 203 52 136 203 52 140 203 52 144 203 52 148 203 52 152 203 52 156 203 52 160 203 52 164 203 52 168 203 52 172 203 52 176 203 52 180 203 52 184 203 52 188 203 52 192 203 52 196 203 52 200 203 52 204 203 52 208 203 52 212 203 52 216 203 52 220 203 52 224 203 52 228 203 52 232 203 52 236 203 52 240 203 52 244 203 52 248 203 52 252 203 
56 0 199 56 4 199 56 8 199 56 12 199 56 16 199 56 20 199 56 24 199 56 28 199 56 32 199 56 36 199 56 40 199 56 44 199 56 48 199 56 52 199 56 56 199 56 60 199 56 64 199 56 68 199 56 72 199 56 76 199 56 80 199 56 84 199 56 88 199 56 92 199 56 96 199 56 100 199 56 104 199 56 108 199 56 112 199 56 116 199 56 120 199 56 124 199 56 128 199 56 132 199 56 136 199 56 140 199 56 144 199 56 148 199 56 152 199 56 156 199 56 160 199 56 164 199 56 168 199 56 172 199 56 176 199 56 180 199 56 184 199 56 188 199 56 192 199 56 196 199 56 200 199 56 204 199 56 208 199 56 212 199 56 216 199 56 220 199 56 224 199 56 228 199 56 232 199 56 236 199 56 240 199 56 244 199 56 248 199 56 252 199 
60 0 195 60 4 195 60 8 195 60 12 195 60 16 195 60 20 195 60 24 195 60 28 195 60 32 195 60 36 195 60 40 195 60 44 195 60 48 195 60 52 195 60 56 195 60 60 195 60 64 195 60 68 195 60 72 195 60 76 195 60 80 195 60 84 195 60 88 195 60 92 195 60 96 195 60 100 195 60 104 195 60 108 195 60 112 195 60 116 195 60 120 195 60 124 195 60 128 195 60 132 195 60 136 195 60 140 195 60 144 195 60 148 195 60 152 195 60 156 195 60 160 195 60 164 195 60 168 195 60 172 195 60 176 195 60 180 195 60 184 195 60 188 195 60 192 195 60 196 195 60 200 195 60 204 195 60 208 195 60 212 195 60 216 195 60 220 195 60 224 195 60 228 195 60 232 195 60 236 195 60 240 195 60 244 195 60 248 195 60 252 195 
64 0 191 64 4 191 64 8 191 64 12 191 64 16 191 64 20 191 64 24 191 64 28 191 64 32 191 64 36 191 64 40 191 64 44 191 64 48 191 64 52 191 64 56 191 64 60 191 64 64 191 64 68 191 64 72 191 64 76 191 64 80 191 64 84 191 64 88 191 64 92 191 64 96 191 64 100 191 64 104 191 64 108 191 64 112 191 64 116 191 64 120 191 64 124 191 64 128 191 64 132 191 64 136 191 64 140 191 64 144 191 64 148 191 64 152 191 64 156 191 64 160 191 64 164 191 64 168 191 64 172 191 64 176 191 64 180 191 64 184 191 64 188 191 64 192 191 64 196 191 64 200 191 64 204 191 64 208 191 64 212 191 64 216 191 64 220 191 64 224 191 64 228 191 64 232 191 64 236 191 64 240 191 64 244 191 64 248 191 64 252 191 
68 0 187 68 4 187 68 8 187 68 12 187 68 16 187 68 20 187 68 24 187 68 28 187 68 32 187 68 36 187 68 40 187 68 44 187 68 48 187 68 52 187 68 56 187 68 60 187 68 64 187 68 68 187 68 72 187 68 76 187 68 80 187 68 84 187 68 88 187 68 92 187 68 96 187 68 100 187 68 104 187 68 108 187 68 112 187 68 116 187 68 120 187 68 124 187 68 128 187 68 132 187 68 136 187 68 140 187 68 144 187 68 148 187 68 152 187 68 156 187 68 160 187 68 164 187 68 168 187 68 172 187 68 176 187 68 180 187 68 184 187 68 188 187 68 192 187 68 196 187 68 200 187 68 204 187 68 208 187 68 212 187 68 216 187 68 220 187 68 224 187 68 228 187 68 232 187 68 236 187 68 240 187 68 244 187 68 248 187 68 252 187 
72 0 183 72 4 183 72 8 183 72 12 183 72 16 183 72 20 183 72 24 183 72 28 183 72 32 183 72 36 183 72 40 183 72 44 183 72 48 183 72 52 183 72 56 183 72 60 183 72 64 183 72 68 183 72 72 183 72 76 183 72 80 183 72 84 183 72 88 183 72 92 183 72 96 183 72 100 183 72 104 183 72 108 183 72 112 183 72 116 183 72 120 183 72 124 183 72 128 183 72 132 183 72 136 183 72 140 183 72 144 183 72 148 183 72 152 183 72 156 183 72 160 183 72 164 183 72 168 183 72 172 183 72 176 183 72 180 183 72 184 183 72 188 183 72 192 183 72 196 183 72 200 183 72 204 183 72 208 183 72 212 183 72 216 183 72 220 183 72 224 183 72 228 183 72 232 183 72 236 183 72 240 183 72 244 183 72 248 183 72 252 183 
76 0 179 76 4 179 76 8 179 76 12 179 76 16 179 76 20 179 76 24 179 76 28 179 76 32 179 76 36 179 76 40 179 76 44 179 76 48 179 76 52 179 76 56 179 76 60 179 76 64 179 76 68 179 76 72 179 76 76 179 76 80 179 76 84 179 76 88 179 76 92 179 76 96 179 76 100 179 76 104 179 76 108 179 76 112 179 76 116 179 76 120 179 76 124 179 76 128 179 76 132 179 76 136 179 76 140 179 76 144 179 76 148 179 76 152 179 76 156 179 76 160 179 76 164 179 76 168 179 76 172 179 76 176 179 76 180 179 76 184 179 76 188 179 76 192 179 76 196 179 76 200 179 76 204 179 76 208 179 76 212 179 76 216 179 76 220 179 76 224 179 76 228 179 76 232 179 76 236 179 76 240 179 76 244 179 76 248 179 76 252 179 
80 0 175 80 4 175 80 8 175 80 12 175 80 16 175 80 20 175 80 24 175 80 28 175 80 32 175 80 36 175 80 40 175 80 44 175 80 48 175 80 52 175 80 56 175 80 60 175 80 64 175 80 68 175 80 72 175 80 76 175 80 80 175 80 84 175 80 88 175 80 92 175 80 96 175 80 100 175 80 104 175 80 108 175 80 112 175 80 116 175 80 120 175 80 124 175 80 128 175 80 132 175 80 136 175 80 140 175 80 144 175 80 148 175 80 152 175 80 156 175 80 160 175 80 164 175 80 168 175 80 172 175 80 176 175 80 180 175 80 184 175 80 188 175 80 192 175 80 196 175 80 200 175 80 204 175 80 208 175 80 212 175 80 216 175 80 220 175 80 224 175 80 228 175 80 232 175 80 236 175 80 240 175 80 244 175 80 248 175 80 252 175 
84 0 171 84 4 171 84 8 171 84 12 171 84 16 171 84 20 171 84 24 171 84 28 171 84 32 171 84 36 171 84 40 171 84 44 171 84 48 171 84 52 171 84 56 171 84 60 171 84 64 171 84 68 171 84 72 171 84 76 171 84 80 171 84 84 171 84 88 171 84 92 171 84 96 171 84 100 171 84 104 171 84 108 171 84 112 171 84 116 171 84 120 171 84 124 171 84 128 171 84 132 171 84 136 171 84 140 171 84 144 171 84 148 171 84 152 171 84 156 171 84 160 171 84 164 171 84 168 171 84 172 171 84 176 171 84 180 171 84 184 171 84 188 171 84 192 171 84 196 171 84 200 171 84 204 171 84 208 171 84 212 171 84 216 171 84 220 171 84 224 171 84 228 171 84 232 171 84 236 171 84 240 171 84 244 171 84 248 171 84 252 171 
88 0 167 88 4 167 88 8 167 88 12 167 88 16 167 88 20 167 88 24 167 88 28 167 88 32 167 88 36 167 88 40 167 88 44 167 88 48 167 88 52 167 88 56 167 88 60 167 88 64 167 88 68 167 88 72 167 88 76 167 88 80 167 88 84 167 88 88 167 88 92 167 88 96 167 88 100 167 88 104 167 88 108 167 88 112 167 88 116 167 88 120 167 88 124 167 88 128 167 88 132 167 88 136 167 88 140 167 88 144 167 88 148 167 88 152 167 88 156 167 88 160 167 88 164 167 88 168 167 88 172 167 88 176 167 88 180 167 88 184 167 88 188 167 88 192 167 88 196 167 88 200 167 88 204 167 88 208 167 88 212 167 88 216 167 88 220 167 88 224 167 88 228 167 88 232 167 88 236 167 88 240 167 88 244 167 88 248 167 88 252 167 
92 0 163 92 4 163 92 8 163 92 12 163 92 16 163 92 20 163 92 24 163 92 28 163 92 32 163 92 36 163 92 40 163 92 44 163 92 48 163 92 52 163 92 56 163 92 60 163 92 64 163 92 68 163 92 72 163 92 76 163 92 80 163 92 84 163 92 88 163 92 92 163 92 96 163 92 100 163 92 104 163 92 108 163 92 112 163 92 116 163 92 120 163 92 124 163 92 128 163 92 132 163 92 136 163 92 140 163 92 144 163 92 148 163 92 152 163 92 156 163 92 160 163 92 164 163 92 168 163 92 172 163 92 176 163 92 180 163 92 184 163 92 188 163 92 192 163 92 196 163 92 200 163 92 204 163 92 208 163 92 212 163 92 216 163 92 220 163 92 224 163 92 228 163 92 232 163 92 236 163 92 240 163 92 244 163 92 248 163 92 252 163 
96 0 159 96 4 159 96 8 159 96 12 159 96 16 159 96 20 159 96 24 159 96 28 159 96 32 159 96 36 159 96 40 159 96 44 159 96 48 159 96 52 159 96 56 159 96 60 159 96 64 159 96 68 159 96 72 159 96 76 159 96 80 159 96 84 159 96 88 159 96 92 159 96 96 159 96 100 159 96 104 159 96 108 159 96 112 159 96 116 159 96 120 159 96 124 159 96 128 159 96 132 159 96 136 159 96 140 159 96 144 159 96 148 159 96 152 159 96 156 159 96 160 159 96 164 159 96 168 159 96 172 159 96 176 159 96 180 159 96 184 159 96 188 159 96 192 159 96 196 159 96 200 159 96 204 159 96 208 159 96 212 159 96 216 159 96 220 159 96 224 159 96 228 159 96 232 159 96 236 159 96 240 159 96 244 159 96 248 159 96 252 159 
100 0 155 100 4 155 100 8 155 100 12 155 100 16 155 100 20 155 100 24 155 100 28 155 100 32 155 100 36 155 100 40 155 100 44 155 100 48 155 100 52 155 100 56 155 100 60 155 100 64 155 100 68 155 100 72 155 100 76 155 100 80 155 100 84 155 100 88 155 100 92 155 100 96 155 100 100 155 100 104 155 100 108 155 100 112 155 100 116 155 100 120 155 100 124 155 100 128 155 100 132 155 100 136 155 100 140 155 100 144 155 100 148 155 100 152 155 100 156 155 100 160 155 100 164 155 100 168 155 100 172 155 100 176 155 100 180 155 100 184 155 100 188 155 100 192 155 100 196 155 100 200 155 100 204 155 100 208 155 100 212 155 100 216 155 100 220 155 100 224 155 100 228 155 100 232 155 100 236 155 100 240 155 100 244 155 100 248 155 100 252 155 
104 0 151 104 4 151 104 8 151 104 12 151 104 16 151 104 20 151 104 24 151 104 28 151 104 32 151 104 36 151 104 40 151 104 44 151 104 48 151 104 52 151 104 56 151 104 60 151 104 64 151 104 68 151 104 72 151 104 76 151 104 80 151 104 84 151 104 88 151 104 92 151 104 96 151 104 100 151 104 104 151 104 108 151 104 112 151 104 116 151 104 120 151 104 124 151 104 128 151 104 132 151 104 136 151 104 140 151 104 144 151 104 148 151 104 152 151 104 156 151 104 160 151 104 164 151 104 168 151 104 172 151 104 176 151 104 180 151 104 184 151 104 188 151 104 192 151 104 196 151 104 200 151 104 204 151 104 208 151 104 212 151 104 216 151 104 220 151 104 224 151 104 228 151 104 232 151 104 236 151 104 240 151 104 244 151 104 248 151 104 252 151 
108 0 147 108 4 147 108 8 147 108 12 147 108 16 147 108 20 147 108 24 147 108 28 147 108 32 147 108 36 147 108 40 147 108 44 147 108 48 147 108 52 147 108 56 147 108 60 147 108 64 147 108 68 147 108 72 147 108 76 147 108 80 147 108 84 147 108 88 147 108 92 147 108 96 147 108 100 147 108 104 147 108 108 147 108 112 147 108 116 147 108 120 147 108 124 147 108 128 147 108 132 147 108 136 147 108 140 147 108 144 147 108 148 147 108 152 147 108 156 147 108 160 147 108 164 147 108 168 147 108 172 147 108 176 147 108 180 147 108 184 147 108 188 147 108 192 147 108 196 147 108 200 147 108 204 147 108 208 147 108 212 147 108 216 147 108 220 147 108 224 147 108 228 147 108 232 147 108 236 147 108 240 147 108 244 147 108 248 147 108 252 147 
112 0 143 112 4 143 112 8 143 112 12 143 112 16 143 112 20 143 112 24 143 112 28 143 112 32 143 112 36 143 112 40 143 112 44 143 112 48 143 112 52 143 112 56 143 112 60 143 112 64 143 112 68 143 112 72 143 112 76 143 112 80 143 112 84 143 112 88 143 112 92 143 112 96 143 112 100 143 112 104 143 112 108 143 112 112 143 112 116 143 112 120 143 112 124 143 112 128 143 112 132 143 112 136 143 112 140 143 112 144 143 112 148 143 112 152 143 112 156 143 112 160 143 112 164 143 112 168 143 112 172 143 112 176 143 112 180 143 112 184 143 112 188 143 112 192 143 112 196 143 112 200 143 112 204 143 112 208 143 112 212 143 112 216 143 112 220 143 112 224 143 112 228 143 112 232 143 112 236 143 112 240 143 112 244 143 112 248 143 112 252 143 
116 0 139 116 4 139 116 8 139 116 12 139 116 16 139 116 20 139 116 24 139 116 28 139 116 32 139 116 36 139 116 40 139 116 44 139 116 48 139 116 52 139 116 56 139 116 60 139 116 64 139 116 68 139 116 72 139 116 76 139 116 80 139 116 84 139 116 88 139 116 92 139 116 96 139 116 100 139 116 104 139 116 108 139 116 112 139 116 116 139 116 120 139 116 124 139 116 128 139 116 132 139 116 136 139 116 140 139 116 144 139 116 148 139 116 152 139 116 156 139 116 160 139 116 164 139 116 168 139 116 172 139 116 176 139 116 180 139 116 184 139 116 188 139 116 192 139 116 196 139 116 200 139 116 204 139 116 208 139 116 212 139 116 216 139 116 220 139 116 224 139 116 228 139 116 232 139 116 236 139 116 240 139 116 244 139 116 248 139 116 252 139 
120 0 135 120 4 135 120 8 135 120 12 135 120 16 135 120 20 135 120 24 135 120 28 135 120 32 135 120 36 135 120 40 135 120 44 135 120 48 135 120 52 135 120 56 135 120 60 135 120 64 135 120 68 135 120 72 135 120 76 135 120 80 135 120 84 135 120 88 135 120 92 135 120 96 135 120 100 135 120 104 135 120 108 135 120 112 135 120 116 135 120 120 135 120 124 135 120 128 135 120 132 135 120 136 135 120 140 135 120 144 135 120 148 135 120 152 135 120 156 135 120 160 135 120 164 135 120 168 135 120 172 135 120 176 135 120 180 135 120 184 135 120 188 135 120 192 135 120 196 135 120 200 135 120 204 135 120 208 135 120 212 135 120 216 135 120 220 135 120 224 135 120 228 135 120 232 135 120 236 135 120 240 135 120 244 135 120 248 135 120 252 135 
124 0 131 124 4 131 124 8 131 124 12 131 124 16 131 124 20 131 124 24 131 124 28 131 124 32 131 124 36 131 124 40 131 124 44 131 124 48 131 124 52 131 124 56 131 124 60 131 124 64 131 124 68 131 124 72 131 124 76 131 124 80 131 124 84 131 124 88 131 124 92 131 124 96 131 124 100 131 124 104 131 124 108 131 124 112 131 124 116 131 124 120 131 124 124 131 124 128 131 124 132 131 124 136 131 124 140 131 124 144 131 124 148 131 124 152 131 124 156 131 124 160 131 124 164 131 124 168 131 124 172 131 124 176 131 124 180 131 124 184 131 124 188 131 124 192 131 124 196 131 124 200 131 124 204 131 124 208 131 124 212 131 124 216 131 124 220 131 124 224 131 124 228 131 124 232 131 124 236 131 124 240 131 124 244 131 124 248 131 124 252 131 
128 0 127 128 4 127 128 8 127 128 12 127 128 16 127 128 20 127 128 24 127 128 28 127 128 32 127 128 36 127 128 40 127 128 44 127 128 48 127 128 52 127 128 56 127 128 60 127 128 64 127 128 68 127 128 72 127 128 76 127 128 80 127 128 84 127 128 88 127 128 92 127 128 96 127 128 100 127 128 104 127 128 108 127 128 112 127 128 116 127 128 120 127 128 124 127 128 128 127 128 132 127 128 136 127 128 140 127 128 144 127 128 148 127 128 152 127 128 156 127 128 160 127 128 164 127 128 168 127 128 172 127 128 176 127 128 180 127 128 184 127 128 188 127 128 192 127 128 196 127 128 200 127 128 204 127 128 208 127 128 212 127 128 216 127 128 220 127 128 224 127 128 228 127 128 232 127 128 236 127 128 240 127 128 244 127 128 248 127 128 252 127 
132 0 123 132 4 123 132 8 123 132 12 123 132 16 123 132 20 123 132 24 123 132 28 123 132 32 123 132 36 123 132 40 123 132 44 123 132 48 123 132 52 123 132 56 123 132 60 123 132 64 123 132 68 123 132 72 123 132 76 123 132 80 123 132 84 123 132 88 123 132 92 123 132 96 123 132 100 123 132 104 123 132 108 123 132 112 123 132 116 123 132 120 123 132 124 123 132 128 123 132 132 123 132 136 123 132 140 123 132 144 123 132 148 123 132 152 123 132 156 123 132 160 123 132 164 123 132 168 123 132 172 123 132 176 123 132 180 123 132 184 123 132 188 123 132 192 123 132 196 123 132 200 123 132 204 123 132 208 123 132 212 123 132 216 123 132 220 123 132 224 123 132 228 123 132 232 123 132 236 123 132 240 123 132 244 123 132 248 123 132 252 123 
136 0 119 136 4 119 136 8 119 136 12 119 136 16 119 136 20 119 136 24 119 136 28 119 136 32 119 136 36 119 136 40 119 136 44 119 136 48 119 136 52 119 136 56 119 136 60 119 136 64 119 136 68 119 136 72 119 136 76 119 136 80 119 136 84 119 136 88 119 136 92 119 136 96 119 136 100 119 136 104 119 136 108 119 136 112 119 136 116 119 136 120 119 136 124 119 136 128 119 136 132 119 136 136 119 136 140 119 136 144 119 136 148 119 136 152 119 136 156 119 136 160 119 136 164 119 136 168 119 136 172 119 136 176 119 136 180 119 136 184 119 136 188 119 136 192 119 136 196 119 136 200 119 136 204 119 136 208 119 136 212 119 136 216 119 136 220 119 136 224 119 136 228 119 136 232 119 136 236 119 136 240 119 136 244 119 136 248 119 136 252 119 
140 0 115 140 4 115 140 8 115 140 12 115 140 16 115 140 20 115 140 24 115 140 28 115 140 32 115 140 36 115 140 40 115 140 44 115 140 48 115 140 52 115 140 56 115 140 60 115 140 64 115 140 68 115 140 72 115 140 76 115 140 80 115 140 84 115 140 88 115 140 92 115 140 96 115 140 100 115 140 104 115 140 108 115 140 112 115 140 116 115 140 120 115 140 124 115 140 128 115 140 132 115 140 136 115 140 140 115 140 144 115 140 148 115 140 152 115 140 156 115 140 160 115 140 164 115 140 168 115 140 172 115 140 176 115 140 180 115 140 184 115 140 188 115 140 192 115 140 196 115 140 200 115 140 204 115 140 208 115 140 212 115 140 216 115 140 220 115 140 224 115 140 228 115 140 232 115 140 236 115 140 240 115 140 244 115 140 248 115 140 252 115 
144 0 111 144 4 111 144 8 111 144 12 111 144 16 111 144 20 111 144 24 111 144 28 111 144 32 111 144 36 111 144 40 111 144 44 111 144 48 111 144 52 111 144 56 111 144 60 111 144 64 111 144 68 111 144 72 111 144 76 111 144 80 111 144 84 111 144 88 111 144 92 111 144 96 111 144 100 111 144 104 111 144 108 111 144 112 111 144 116 111 144 120 111 144 124 111 144 128 111 144 132 111 144 136 111 144 140 111 144 144 111 144 148 111 144 152 111 144 156 111 144 160 111 144 164 111 144 168 111 144 172 111 144 176 111 144 180 111 144 184 111 144 188 111 144 192 111 144 196 111 144 200 111 144 204 111 144 208 111 144 212 111 144 216 111 144 220 111 144 224 111 144 228 111 144 232 111 144 236 111 144 240 111 144 244 111 144 248 111 144 252 111 
148 0 107 148 4 107 148 8 107 148 12 107 148 16 107 148 20 107 148 24 107 148 28 107 148 32 107 148 36 107 148 40 107 148 44 107 148 48 107 148 52 107 148 56 107 148 60 107 148 64 107 148 68 107 148 72 107 148 76 107 148 80 107 148 84 107 148 88 107 148 92 107 148 96 107 148 100 107 148 104 107 148 108 107 148 112 107 148 116 107 148 120 107 148 124 107 148 128 107 148 132 107 148 136 107 148 140 107 148 144 107 148 148 107 148 152 107 148 156 107 148 160 107 148 164 107 148 168 107 148 172 107 148 176 107 148 180 107 148 184 107 148 188 107 148 192 107 148 196 107 148 200 107 148 204 107 148 208 107 148 212 107 148 216 107 148 220 107 148 224 107 148 228 107 148 232 107 148 236 107 148 240 107 148 244 107 148 248 107 148 252 107 
152 0 103 152 4 103 152 8 103 152 12 103 152 16 103 152 20 103 152 24 103 152 28 103 152 32 103 152 36 103 152 40 103 152 44 103 152 48 103 152 52 103 152 56 103 152 60 103 152 64 103 152 68 103 152 72 103 152 76 103 152 80 103 152 84 103 152 88 103 152 92 103 152 96 103 152 100 103 152 104 103 152 108 103 152 112 103 152 116 103 152 120 103 152 124 103 152 128 103 152 132 103 152 136 103 152 140 103 152 144 103 152 148 103 152 152 103 152 156 103 152 160 103 152 164 103 152 168 103 152 172 103 152 176 103 152 180 103 152 184 103 152 188 103 152 192 103 152 196 103 152 200 103 152 204 103 152 208 103 152 212 103 152 216 103 152 220 103 152 224 103 152 228 103 152 232 103 152 236 103 152 240 103 152 244 103 152 248 103 152 252 103 
156 0 99 156 4 99 156 8 99 156 12 99 156 16 99 156 20 99 156 24 99 156 28 99 156 32 99 156 36 99 156 40 99 156 44 99 156 48 99 156 52 99 156 56 99 156 60 99 156 64 99 156 68 99 156 72 99 156 76 99 156 80 99 156 84 99 156 88 99 156 92 99 156 96 99 156 100 99 156 104 99 156 108 99 156 112 99 156 116 99 156 120 99 156 124 99 156 128 99 156 132 99 156 136 99 156 140 99 156 144 99 156 148 99 156 152 99 156 156 99 156 160 99 156 164 99 156 168 99 156 172 99 156 176 99 156 180 99 156 184 99 156 188 99 156 192 99 156 196 99 156 200 99 156 204 99 156 208 99 156 212 99 156 216 99 156 220 99 156 224 99 156 228 99 156 232 99 156 236 99 156 240 99 156 244 99 156 248 99 156 252 99 
160 0 95 160 4 95 160 8 95 160 12 95 160 16 95 160 20 95 160 24 95 160 28 95 160 32 95 160 36 95 160 40 95 160 44 95 160 48 95 160 52 95 160 56 95 160 60 95 160 64 95 160 68 95 160 72 95 160 76 95 160 80 95 160 84 95 160 88 95 160 92 95 160 96 95 160 100 95 160 104 95 160 108 95 160 112 95 160 116 95 160 120 95 160 124 95 160 128 95 160 132 95 160 136 95 160 140 95 160 144 95 160 148 95 160 152 95 160 156 95 160 160 95 160 164 95 160 168 95 160 172 95 160 176 95 160 180 95 160 184 95 160 188 95 160 192 95 160 196 95 160 200 95 160 204 95 160 208 95 160 212 95 160 216 95 160 220 95 160 224 95 160 228 95 160 232 95 160 236 95 160 240 95 160 244 95 160 248 95 160 252 95 
164 0 91 164 4 91 164 8 91 164 12 91 164 16 91 164 20 91 164 24 91 164 28 91 164 32 91 164 36 91 164 40 91 164 44 91 164 48 91 164 52 91 164 56 91 164 60 91 164 64 91 164 68 91 164 72 91 164 76 91 164 80 91 164 84 91 164 88 91 164 92 91 164 96 91 164 100 91 164 104 91 164 108 91 164 112 91 164 116 91 164 120 91 164 124 91 164 128 91 164 132 91 164 136 91 164 140 91 164 144 91 164 148 91 164 152 91 164 156 91 164 160 91 164 164 91 164 168 91 164 172 91 164 176 91 164 180 91 164 184 91 164 188 91 164 192 91 164 196 91 164 200 91 164 204 91 164 208 91 164 212 91 164 216 91 164 220 91 164 224 91 164 228 91 164 232 91 164 236 91 164 240 91 164 244 91 164 248 91 164 252 91 
168 0 87 168 4 87 168 8 87 168 12 87 168 16 87 168 20 87 168 24 87 168 28 87 168 32 87 168 36 87 168 40 87 168 44 87 168 48 87 168 52 87 168 56 87 168 60 87 168 64 87 168 68 87 168 72 87 168 76 87 168 80 87 168 84 87 168 88 87 168 92 87 168 96 87 168 100 87 168 104 87 168 108 87 168 112 87 168 116 87 168 120 87 168 124 87 168 128 87 168 132 87 168 136 87 168 140 87 168 144 87 168 148 87 168 152 87 168 156 87 168 160 87 168 164 87 168 168 87 168 172 87 168 176 87 168 180 87 168 184 87 168 188 87 168 192 87 168 196 87 168 200 87 168 204 87 168 208 87 168 212 87 168 216 87 168 220 87 168 224 87 168 228 87 168 232 87 168 236 87 168 240 87 168 244 87 168 248 87 168 252 87 
172 0 83 172 4 83 172 8 83 172 12 83 172 16 83 172 20 83 172 24 83 172 28 83 172 32 83 172 36 83 172 40 83 172 44 83 172 48 83 172 52 83 172 56 83 172 60 83 172 64 83 172 68 83 172 72 83 172 76 83 172 80 83 172 84 83 172 88 83 172 92 83 172 96 83 172 100 83 172 104 83 172 108 83 172 112 83 172 116 83 172 120 83 172 124 83 172 128 83 172 132 83 172 136 83 172 140 83 172 144 83 172 148 83 172 152 83 172 156 83 172 160 83 172 164 83 172 168 83 172 172 83 172 176 83 172 180 83 172 184 83 172 188 83 172 192 83 172 196 83 172 200 83 172 204 83 172 208 83 172 212 83 172 216 83 172 220 83 172 224 83 172 228 83 172 232 83 172 236 83 172 240 83 172 244 83 172 248 83 172 252 83 
176 0 79 176 4 79 176 8 79 176 12 79 176 16 79 176 20 79 176 24 79 176 28 79 176 32 79 176 36 79 176 40 79 176 44 79 176 48 79 176 52 79 176 56 79 176 60 79 176 64 79 176 68 79 176 72 79 176 76 79 176 80 79 176 84 79 176 88 79 176 92 79 176 96 79 176 100 79 176 104 79 176 108 79 176 112 79 176 116 79 176 120 79 176 124 79 176 128 79 176 132 79 176 136 79 176 140 79 176 144 79 176 148 79 176 152 79 176 156 79 176 160 79 176 164 79 176 168 79 176 172 79 176 176 79 176 180 79 176 184 79 176 188 79 176 192 79 176 196 79 176 200 79 176 204 79 176 208 79 176 212 79 176 216 79 176 220 79 176 224 79 176 228 79 176 232 79 176 236 79 176 240 79 176 244 79 176 248 79 176 252 79 
180 0 75 180 4 75 180 8 75 180 12 75 180 16 75 180 20 75 180 24 75 180 28 75 180 32 75 180 36 75 180 40 75 180 44 75 180 48 75 180 52 75 180 56 75 180 60 75 180 64 75 180 68 75 180 72 75 180 76 75 180 80 75 180 84 75 180 88 75 180 92 75 180 96 75 180 100 75 180 104 75 180 108 75 180 112 75 180 116 75 180 120 75 180 124 75 180 128 75 180 132 75 180 136 75 180 140 75 180 144 75 180 148 75 180 152 75 180 156 75 180 160 75 180 164 75 180 168 75 180 172 75 180 176 75 180 180 75 180 184 75 180 188 75 180 192 75 180 196 75 180 200 75 180 204 75 180 208 75 180 212 75 180 216 75 180 220 75 180 224 75 180 228 75 180 232 75 180 236 75 180 240 75 180 244 75 180 248 75 180 252 75 
184 0 71 184 4 71 184 8 71 184 12 71 184 16 71 184 20 71 184 24 71 184 28 71 184 32 71 184 36 71 184 40 71 184 44 71 184 48 71 184 52 71 184 56 71 184 60 71 184 64 71 184 68 71 184 72 71 184 76 71 184 80 71 184 84 71 184 88 71 184 92 71 184 96 71 184 100 71 184 104 71 184 108 71 184 112 71 184 116 71 184 120 71 184 124 71 184 128 71 184 132 71 184 136 71 184 140 71 184 144 71 184 148 71 184 152 71 184 156 71 184 160 71 184 164 71 184 168 71 184 172 71 184 176 71 184 180 71 184 184 71 184 188 71 184 192 71 184 196 71 184 200 71 184 204 71 184 208 71 184 212 71 184 216 71 184 220 71 184 224 71 184 228 71 184 232 71 184 236 71 184 240 71 184 244 71 184 248 71 184 252 71 
188 0 67 188 4 67 188 8 67 188 12 67 188 16 67 188 20 67 188 24 67 188 28 67 188 32 67 188 36 67 188 40 67 188 44 67 188 48 67 188 52 67 188 56 67 188 60 67 188 64 67 188 68 67 188 72 67 188 76 67 188 80 67 188 84 67 188 88 67 188 92 67 188 96 67 188 100 67 188 104 67 188 108 67 188 112 67 188 116 67 188 120 67 188 124 67 188 128 67 188 132 67 188 136 67 188 140 67 188 144 67 188 148 67 188 152 67 188 156 67 188 160 67 188 164 67 188 168 67 188 172 67 188 176 67 188 180 67 188 184 67 188 188 67 188 192 67 188 196 67 188 200 67 188 204 67 188 208 67 188 212 67 188 216 67 188 220 67 188 224 67 188 228 67 188 232 67 188 236 67 188 240 67 188 244 67 188 248 67 188 252 67 
192 0 63 192 4 63 192 8 63 192 12 63 192 16 63 192 20 63 192 24 63 192 28 63 192 32 63 192 36 63 192 40 63 192 44 63 192 48 63 192 52 63 192 56 63 192 60 63 192 64 63 192 68 63 192 72 63 192 76 63 192 80 63 192 84 63 192 88 63 192 92 63 192 96 63 192 100 63 192 104 63 192 108 63 192 112 63 192 116 63 192 120 63 192 124 63 192 128 63 192 132 63 192 136 63 192 140 63 192 144 63 192 148 63 192 152 63 192 156 63 192 160 63 192 164 63 192 168 63 192 172 63 192 176 63 192 180 63 192 184 63 192 188 63 192 192 63 192 196 63 192 200 63 192 204 63 192 208 63 192 212 63 192 216 63 192 220 63 192 224 63 192 228 63 192 232 63 192 236 63 192 240 63 192 244 63 192 248 63 192 252 63 
196 0 59 196 4 59 196 8 59 196 12 59 196 16 59 196 20 59 196 24 59 196 28 59 196 32 59 196 36 59 196 40 59 196 44 59 196 48 59 196 52 59 196 56 59 196 60 59 196 64 59 196 68 59 196 72 59 196 76 59 196 80 59 196 84 59 196 88 59 196 92 59 196 96 59 196 100 59 196 104 59 196 108 59 196 112 59 196 116 59 196 120 59 196 124 59 196 128 59 196 132 59 196 136 59 196 140 59 196 144 59 196 148 59 196 152 59 196 156 59 196 160 59 196 164 59 196 168 59 196 172 59 196 176 59 196 180 59 196 184 59 196 188 59 196 192 59 196 196 59 196 200 59 196 204 59 196 208 59 196 212 59 196 216 59 196 220 59 196 224 59 196 228 59 196 232 59 196 236 59 196 240 59 196 244 59 196 248 59 196 252 59 
200 0 55 200 4 55 200 8 55 200 12 55 200 16 55 200 20 55 200 24 55 200 28 55 200 32 55 200 36 55 200 40 55 200 44 55 200 48 55 200 52 55 200 56 55 200 60 55 200 64 55 200 68 55 200 72 55 200 76 55 200 80 55 200 84 55 200 88 55 200 92 55 200 96 55 200 100 55 200 104 55 200 108 55 200 112 55 200 116 55 200 120 55 200 124 55 200 128 55 200 132 55 200 136 55 200 140 55 200 144 55 200 148 55 200 152 55 200 156 55 200 160 55 200 164 55 200 168 55 200 172 55 200 176 55 200 180 55 200 184 55 200 188 55 200 192 55 200 196 55 200 200 55 200 204 55 200 208 55 200 212 55 200 216 55 200 220 55 200 224 55 200 228 55 200 232 55 200 236 55 200 240 55 200 244 55 200 248 55 200 252 55 
204 0 51 204 4 51 204 8 51 204 12 51 204 16 51 204 20 51 204 24 51 204 28 51 204 32 51 204 36 51 204 40 51 204 44 51 204 48 51 204 52 51 204 56 51 204 60 51 204 64 51 204 68 51 204 72 51 204 76 51 204 80 51 204 84 51 204 88 51 204 92 51 204 96 51 204 100 51 204 104 51 204 108 51 204 112 51 204 116 51 204 120 51 204 124 51 204 128 51 204 132 51 204 136 51 204 140 51 204 144 51 204 148 51 204 152 51 204 156 51 204 160 51 204 164 51 204 168 51 204 172 51 204 176 51 204 180 51 204 184 51 204 188 51 204 192 51 204 196 51 204 200 51 204 204 51 204 208 51 204 212 51 204 216 51 204 220 51 204 224 51 204 228 51 204 232 51 204 236 51 204 240 51 204 244 51 204 248 51 204 252 51 
208 0 47 208 4 47 208 8 47 208 12 47 208 16 47 208 20 47 208 24 47 208 28 47 208 32 47 208 36 47 208 40 47 208 44 47 208 48 47 208 52 47 208 56 47 208 60 47 208 64 47 208 68 47 208 72 47 208 76 47 208 80 47 208 84 47 208 88 47 208 92 47 208 96 47 208 100 47 208 104 47 208 108 47 208 112 47 208 116 47 208 120 47 208 124 47 208 128 47 208 132 47 208 136 47 208 140 47 208 144 47 208 148 47 208 152 47 208 156 47 208 160 47 208 164 47 208 168 47 208 172 47 208 176 47 208 180 47 208 184 47 208 188 47 208 192 47 208 196 47 208 200 47 208 204 47 208 208 47 208 212 47 208 216 47 208 220 47 208 224 47 208 228 47 208 232 47 208 236 47 208 240 47 208 244 47 208 248 47 208 252 47 
212 0 43 212 4 43 212 8 43 212 12 43 212 16 43 212 20 43 212 24 43 212 28 43 212 32 43 212 36 43 212 40 43 212 44 43 212 48 43 212 52 43 212 56 43 212 60 43 212 64 43 212 68 43 212 72 43 212 76 43 212 80 43 212 84 43 212 88 43 212 92 43 212 96 43 212 100 43 212 104 43 212 108 43 212 112 43 212 116 43 212 120 43 212 124 43 212 128 43 212 132 43 212 136 43 212 140 43 212 144 43 212 148 43 212 152 43 212 156 43 212 160 43 212 164 43 212 168 43 212 172 43 212 176 43 212 180 43 212 184 43 212 188 43 212 192 43 212 196 43 212 200 43 212 204 43 212 208 43 212 212 43 212 216 43 212 220 43 212 224 43 212 228 43 212 232 43 212 236 43 212 240 43 212 244 43 212 248 43 212 252 43 
216 0 39 216 4 39 216 8 39 216 12 39 216 16 39 216 20 39 216 24 39 216 28 39 216 32 39 216 36 39 216 40 39 216 44 39 216 48 39 216 52 39 216 56 39 216 60 39 216 64 39 216 68 39 216 72 39 216 76 39 216 80 39 216 84 39 216 88 39 216 92 39 216 96 39 216 100 39 216 104 39 216 108 39 216 112 39 216 116 39 216 120 39 216 124 39 216 128 39 216 132 39 216 136 39 216 140 39 216 144 39 216 148 39 216 152 39 216 156 39 216 160 39 216 164 39 216 168 39 216 172 39 216 176 39 216 180 39 216 184 39 216 188 39 216 192 39 216 196 39 216 200 39 216 204 39 216 208 39 216 212 39 216 216 39 216 220 39 216 224 39 216 228 39 216 232 39 216 236 39 216 240 39 216 244 39 216 248 39 216 252 39 
220 0 35 220 4 35 220 8 35 220 12 35 220 16 35 220 20 35 220 24 35 220 28 35 220 32 35 220 36 35 220 40 35 220 44 35 220 48 35 220 52 35 220 56 35 220 60 35 220 64 35 220 68 35 220 72 35 220 76 35 220 80 35 220 84 35 220 88 35 220 92 35 220 96 35 220 100 35 220 104 35 220 108 35 220 112 35 220 116 35 220 120 35 220 124 35 220 128 35 220 132 35 220 136 35 220 140 35 220 144 35 220 148 35 220 152 35 220 156 35 220 160 35 220 164 35 220 168 35 220 172 35 220 176 35 220 180 35 220 184 35 220 188 35 220 192 35 220 196 35 220 200 35 220 204 35 220 208 35 220 212 35 220 216 35 220 220 35 220 224 35 220 228 35 220 232 35 220 236 35 220 240 35 220 244 35 220 248 35 220 252 35 
224 0 31 224 4 31 224 8 31 224 12 31 224 16 31 224 20 31 224 24 31 224 28 31 224 32 31 224 36 31 224 40 31 224 44 31 224 48 31 224 52 31 224 56 31 224 60 31 224 64 31 224 68 31 224 72 31 224 76 31 224 80 31 224 84 31 224 88 31 224 92 31 224 96 31 224 100 31 224 104 31 224 108 31 224 112 31 224 116 31 224 120 31 224 124 31 224 128 31 224 132 31 224 136 31 224 140 31 224 144 31 224 148 31 224 152 31 224 156 31 224 160 31 224 164 31 224 168 31 224 172 31 224 176 31 224 180 31 224 184 31 224 188 31 224 192 31 224 196 31 224 200 31 224 204 31 224 208 31 224 212 31 224 216 31 224 220 31 224 224 31 224 228 31 224 232 31 224 236 31 224 240 31 224 244 31 224 248 31 224 252 31 
228 0 27 228 4 27 228 8 27 228 12 27 228 16 27 228 20 27 228 24 27 228 28 27 228 32 27 228 36 27 228 40 27 228 44 27 228 48 27 228 52 27 228 56 27 228 60 27 228 64 27 228 68 27 228 72 27 228 76 27 228 80 27 228 84 27 228 88 27 228 92 27 228 96 27 228 100 27 228 104 27 228 108 27 228 112 27 228 116 27 228 120 27 228 124 27 228 128 27 228 132 27 228 136 27 228 140 27 228 144 27 228 148 27 228 152 27 228 156 27 228 160 27 228 164 27 228 168 27 228 172 27 228 176 27 228 180 27 228 184 27 228 188 27 228 192 27 228 196 27 228 200 27 228 204 27 228 208 27 228 212 27 228 216 27 228 220 27 228 224 27 228 228 27 228 232 27 228 236 27 228 240 27 228 244 27 228 248 27 228 252 27 
232 0 23 232 4 23 232 8 23 232 12 23 232 16 23 232 20 23 232 24 23 232 28 23 232 32 23 232 36 23 232 40 23 232 44 23 232 48 23 232 52 23 232 56 23 232 60 23 232 64 23 232 68 23 232 72 23 232 76 23 232 80 23 232 84 23 232 88 23 232 92 23 232 96 23 232 100 23 232 104 23 232 108 23 232 112 23 232 116 23 232 120 23 232 124 23 232 128 23 232 132 23 232 136 23 232 140 23 232 144 23 232 148 23 232 152 23 232 156 23 232 160 23 232 164 23 232 168 23 232 172 23 232 176 23 232 180 23 232 184 23 232 188 23 232 192 23 232 196 23 232 200 23 232 204 23 232 208 23 232 212 23 232 216 23 232 220 23 232 224 23 232 228 23 232 232 23 232 236 23 232 240 23 232 244 23 232 248 23 232 252 23 
236 0 19 236 4 19 236 8 19 236 12 19 236 16 19 236 20 19 236 24 19 236 28 19 236 32 19 236 36 19 236 40 19 236 44 19 236 48 19 236 52 19 236 56 19 236 60 19 236 64 19 236 68 19 236 72 19 236 76 19 236 80 19 236 84 19 236 88 19 236 92 19 236 96 19 236 100 19 236 104 19 236 108 19 236 112 19 236 116 19 236 120 19 236 124 19 236 128 19 236 132 19 236 136 19 236 140 19 236 144 19 236 148 19 236 152 19 236 156 19 236 160 19 236 164 19 236 168 19 236 172 19 236 176 19 236 180 19 236 184 19 236 188 19 236 192 19 236 196 19 236 200 19 236 204 19 236 208 19 236 212 19 236 216 19 236 220 19 236 224 19 236 228 19 236 232 19 236 236 19 236 240 19 236 244 19 236 248 19 236 252 19 
240 0 15 240 4 15 240 8 15 240 12 15 240 16 15 240 20 15 240 24 15 240 28 15 240 32 15 240 36 15 240 40 15 240 44 15 240 48 15 240 52 15 240 56 15 240 60 15 240 64 15 240 68 15 240 72 15 240 76 15 240 80 15 240 84 15 240 88 15 240 92 15 240 96 15 240 100 15 240 104 15 240 108 15 240 112 15 240 116 15 240 120 15 240 124 15 240 128 15 240 132 15 240 136 15 240 140 15 240 144 15 240 148 15 240 152 15 240 156 15 240 160 15 240 164 15 240 168 15 240 172 15 240 176 15 240 180 15 240 184 15 240 188 15 240 192 15 240 196 15 240 200 15 240 204 15 240 208 15 240 212 15 240 216 15 240 220 15 240 224 15 240 228 15 240 232 15 240 236 15 240 240 15 240 244 15 240 248 15 240 252 15 
244 0 11 244 4 11 244 8 11 244 12 11 244 16 11 244 20 11 244 24 11 244 28 11 244 32 11 244 36 11 244 40 11 244 44 11 244 48 11 244 52 11 244 56 11 244 60 11 244 64 11 244 68 11 244 72 11 244 76 11 244 80 11 244 84 11 244 88 11 244 92 11 244 96 11 244 100 11 244 104 11 244 108 11 244 112 11 244 116 11 244 120 11 244 124 11 244 128 11 244 132 11 244 136 11 244 140 11 244 144 11 244 148 11 244 152 11 244 156 11 244 160 11 244 164 11 244 168 11 244 172 11 244 176 11 244 180 11 244 184 11 244 188 11 244 192 11 244 196 11 244 200 11 244 204 11 244 208 11 244 212 11 244 216 11 244 220 11 244 224 11 244 228 11 244 232 11 244 236 11 244 240 11 244 244 11 244 248 11 244 252 11 
248 0 7 248 4 7 248 8 7 248 12 7 248 16 7 248 20 7 248 24 7 248 28 7 248 32 7 248 36 7 248 40 7 248 44 7 248 48 7 248 52 7 248 56 7 248 60 7 248 64 7 248 68 7 248 72 7 248 76 7 248 80 7 248 84 7 248 88 7 248 92 7 248 96 7 248 100 7 248 104 7 248 108 7 248 112 7 248 116 7 248 120 7 248 124 7 248 128 7 248 132 7 248 136 7 248 140 7 248 144 7 248 148 7 248 152 7 248 156 7 248 160 7 248 164 7 248 168 7 248 172 7 248 176 7 248 180 7 248 184 7 248 188 7 248 192 7 248 196 7 248 200 7 248 204 7 248 208 7 248 212 7 248 216 7 248 220 7 248 224 7 248 228 7 248 232 7 248 236 7 248 240 7 248 244 7 248 248 7 248 252 7 
252 0 3 252 4 3 252 8 3 252 12 3 252 16 3 252 20 3 252 24 3 252 28 3 252 32 3 252 36 3 252 40 3 252 44 3 252 48 3 252 52 3 252 56 3 252 60 3 252 64 3 252 68 3 252 72 3 252 76 3 252 80 3 252 84 3 252 88 3 252 92 3 252 96 3 252 100 3 252 104 3 252 108 3 252 112 3 252 116 3 252 120 3 252 124 3 252 128 3 252 132 3 252 136 3 252 140 3 252 144 3 252 148 3 252 152 3 252 156 3 252 160 3 252 164 3 252 168 3 252 172 3 252 176 3 252 180 3 252 184 3 252 188 3 252 192 3 252 196 3 252 200 3 252 204 3 252 208 3 252 212 3 252 216 3 252 220 3 252 224 3 252 228 3 252 232 3 252 236 3 252 240 3 252 244 3 252 248 3 252 252 3 
